<mxfile host="app.diagrams.net" agent="Mozilla/5.0 (Macintosh; Intel Mac OS X 10_15_7) AppleWebKit/537.36 (KHTML, like Gecko) Chrome/139.0.0.0 Safari/537.36" version="28.2.7">
  <diagram name="Page-1" id="OmUNpb6HAZOHwD4LWTBH">
    <mxGraphModel dx="1234" dy="751" grid="1" gridSize="10" guides="1" tooltips="1" connect="1" arrows="1" fold="1" page="1" pageScale="1" pageWidth="850" pageHeight="1100" math="0" shadow="0">
      <root>
        <mxCell id="0" />
        <mxCell id="1" parent="0" />
        <mxCell id="a8-rNCmPUpZNnrMcsMXF-34" value="Legend" style="rounded=0;whiteSpace=wrap;html=1;verticalAlign=top;fontStyle=1" vertex="1" parent="1">
          <mxGeometry x="30" y="230" width="148" height="91" as="geometry" />
        </mxCell>
        <mxCell id="a8-rNCmPUpZNnrMcsMXF-1" value="Devices" style="rounded=1;whiteSpace=wrap;html=1;verticalAlign=top;fontStyle=1" vertex="1" parent="1">
          <mxGeometry x="70" y="40" width="70" height="140" as="geometry" />
        </mxCell>
        <mxCell id="a8-rNCmPUpZNnrMcsMXF-3" value="Gateway and LB" style="rounded=1;whiteSpace=wrap;html=1;fontStyle=1" vertex="1" parent="1">
          <mxGeometry x="190" y="40" width="70" height="140" as="geometry" />
        </mxCell>
        <mxCell id="a8-rNCmPUpZNnrMcsMXF-4" value="&lt;b&gt;Device Management&lt;br&gt;&lt;br&gt;&lt;/b&gt;&lt;div&gt;&lt;i&gt;Registry, AuthN/Z, Config Store&lt;/i&gt;&lt;/div&gt;" style="rounded=1;whiteSpace=wrap;html=1;" vertex="1" parent="1">
          <mxGeometry x="310" y="120" width="270" height="60" as="geometry" />
        </mxCell>
        <mxCell id="a8-rNCmPUpZNnrMcsMXF-5" value="&lt;b&gt;Event Backbone and Messaging&lt;br&gt;&lt;/b&gt;&lt;br&gt;&lt;i&gt;MQTT Bridge/Brocker, Pub/Sub Topics&lt;/i&gt;" style="rounded=1;whiteSpace=wrap;html=1;" vertex="1" parent="1">
          <mxGeometry x="310" y="40" width="270" height="60" as="geometry" />
        </mxCell>
        <mxCell id="a8-rNCmPUpZNnrMcsMXF-7" value="" style="shape=image;verticalLabelPosition=bottom;labelBackgroundColor=default;verticalAlign=top;aspect=fixed;imageAspect=0;image=data:image/png,iVBORw0KGgoAAAANSUhEUgAAAgAAAAIACAYAAAD0eNT6AAAABHNCSVQICAgIfAhkiAAAAAlwSFlzAAAOxAAADsQBlSsOGwAAABl0RVh0U29mdHdhcmUAd3d3Lmlua3NjYXBlLm9yZ5vuPBoAACAASURBVHic7d13mGVFmfjxb0+eIQwDSE5DVJBFwAgYyFHFgKvrKv4MiBETiyuwYlowoGBC2MUsZiWIgIIRkShJJQfJSM7DhO7fH9W9NE13z723wgn3+3meeoZnmHvOW3XvrVP3nKq3QJIkSZIkSZIkSZIkSZIkSZIkSZIkSZIkSZIkSZIkSZIkSZIkSZIkSZIkSZIkSZIkSZIkSZIkSZIkSZIkSZIkSZIkSZIkSZIkSZIkSZIkSZIkSZIkSZIkSZIkSZIkSZIkSZIkSZIkSZIkSZIkSZIkSZIkSZIkSZIkSZIkSZIkSZIkSZIkSZIkSZIkSZIkSZIkSZIkSZIkSZIkSZL610DVAUjqC3OAdYG1gDWBdYCVgHnAisN/zgRWIPRLywNTh1/7CLBw+L8fAB4e/rv7gH8CdwK3D/95w3B5PHeFpKZzACAppbnAlsCzgKcDGwGbEC76pQwBtwHXAVcClwN/BS4D7i0Yh1RrDgAk9Wo64WK/zXDZGli/0oiW7h/AucPlPOAveLdAfcoBgKROTSFc8HcBdgaeR7i132SPAWcDZw2Xi4EllUYkSVINLAO8Gvgu4Xn7UMvLXcC3gFcByyZoP0mSGmM54I3ASYRfyFVflKsqC4BTgTcMt4kkSa0zFdgd+B5hhn3VF9+6lUeBHwIvA6b12MaSJNXGGsBBwI1Uf5FtSrkdOIL6T3iUJOkpdibc4l9M9RfUppYlwGmESZFOqJYk1dZ0YB/gfKq/eLatXAUcAMzu+N2QJCmzmcC7gZuo/kLZ9nIrDgQkSRWbCbwLuJnqL4z9Vm4H3o8DAUlSQVMIS9f+QfUXwn4vNwP/jyf2NZAkKYvtgYuo/sJneXK5jLDMUpKkpNYFfkb1FzrL5OUUXD4oSUpgOmHS2UNUf3GzdFYeB44mpFmWKuPaVam5tgGOJ2y72yT3A3cQ8u7fOeq/7+KJjXjuJ1wsR1sGWBFYafjPkf9eCZhP2Iq4Sa4B3gr8oepA1J8cAEjNMwf4JOGX/5SKY5nMrcDfgMuBv4/685FM51uNMBjaBNgYeMbwf8+nvn3dIHAM8GHg4YpjkSTV2AuAq6n+NvbYspCwre4ngB2BebkaoAcrAy8HPk9IgrSI6ttrbLkBeGGuBpAkNddU4FDqc/FaDJwLHA7sSrOeZy9LSIX8ceBCqm/L0W36cdxsSJI0bB3Cc+KqL1BLgD8SsgqulrXGZc0HPgT8mXBLvup2Pmc4JklSH9sVuJvqLkaDhF/67wfWylzXOlibMLfij1Q7GLgH2CNzXSVJNTQAHEx1u/XdB3wO2CB3RWvs6cCXgAeo5j1YAnyMek/0lCQltCxwItVcdP4G7E+znunnthzwTkLbVPGenAosn72WkqRKrQ1cQvlfmicBO1Hf5XJ1MADsAJxM+ccDlwPrZa+hJKkSzwFuo+yF5RfAFiUq1zLPAc6g7Ht1JyH5kySpRfYiJMgpdTH5I7BdkZq124sJ+Q9KvW+PEXIaSJJa4A2ERDolLiAX4+zyHHan3C6MiwhbDEuSGuwAyjxPvhd4C84oz2kK8A6e2McgZxkEDixTLUlSagdS5hfjKcCaheqkkCTp25R5bz9aqE6SpERKXPxvAV5RqkJ6ij2AG8n/Ph9RqD6SpEgfIe8FYTFwJK7lr4NlgS+Q/zHPx0pVSJLUm3eR90JwJ7BLsdo0zyqEuy+nA1cC1wCnDf9dzv0NdgRuJ+9775wASaqp1xOS7uS6APwWWL1YbZplCnAQky+1fBj4T/IlQ1oV+PUk548tg8DbMsUuSerRXuRb6rcYOIywZbCeairwXTpvzxPIt1piGvBJ8g0EFwOvyhS7JKlLzyFfkp87CLeXNbFj6L5dD8sc086ExzU5PhOPAi/IHL8kaSnWIV9630txed/S9DrhciEwP3Ns6wFX9Bjf0sqdwPqZ45ckTWA5wkU6Rwd/Ju4QtzT7Ejf7vsTyuhWBP0TEOFm5AphXoA6SpFGmEBLw5OjYvwPMKFeVRtqV+DkXFxeKdSbww8hYJyq/xOyPklTUR8nToR+NHfrSbAU8SHxbP1gw5gHCvIMcn5lPlquGJPW33Ug/y3sJIc+8JjefdOvtHy0cO+TZG2IQM0JKUnbrAfeQvgPfr2AdmmplQnKfVO3+j7Lh/5/3dxFjp+V+YIOSlZCkfjKNPHvDm+Ft6WaTvu3PKlqDJ/vAJHH1Wi7AuSOSlMVhpO+0P1KyAg01Ffgp6dv+2JKVGMdhpK/TZ0pWQJL6wXaELGwpO+tPFK1Bc32J9BfKIeBDJSsxgcNJW6dBQhIiSVICywLXk7ajPrJoDZrrEPJc/IeAvQvWYzKpBzj/wBwSkpRE6g76Z+TbkKZN/o282+xuVq4qk5oK/IK0dfvfojWQpBbajrRL/i4l3FHQ5HYAHiffxX+QMLGwLlYgfdrg3YvWQJJaZBZpl53dRf78822wFfAQ+S7+Q8BNxWrTuY1Iu8T0BmBO0RpIUkscRrrOeCGwfdHomyllop/JSpVLACfzItLe+Ti8bPiS1HwbAI+RriN+Z9nwG2kl0t5xmax8rVCdevEu0g48n1k2fElqtpSTsr5ROPYmypHoZ7JShyWAk/kx6er6u7KhS1JzvZR0ne/1hG2DNbFciX4mK3VZAjiRlYBbSFdf9wqQpKWYCvyVNJ3uEuAlRaNvplyJfiYrdVkCOJmdSLcM8jrCtsSSpAm8jXQXGZP9LF3ORD8TlbotAZzMF0hX7w8Ujl2SGmM2cDNpOtu/05yLTFVyJ/qZqNRxCeBEZhJyR6So9934OEqSxvVh0nS0C4GtC8feNLkT/UxW6roEcCLPAhaRpu6HFI5dkmpvWUKinhSd7McLx940JRL9TFbqvARwIkeRpu73EbIOSpKG/QdpOtjr8Nb/ZEol+pms1H0J4HhWAO4kTf0/Vjh2SaqtZUjXue5VOPYmKZnoZ7JS9yWAE3kzaep/D+5HIUkAvIc0HesppQNvkNKJfiYrTVgCOJ4pwLmkaYP3FY5dkmpnCnAt8R3qYpp7YcmtikQ/E5UlNPsRzdak2Z3yZmBG4dglqVZeTpoLy3GlA2+QKhL9TFT+kbmuJXydNG3xb6UDl6Q6+R3xHekjwOqF426KKhL9TFaatgRwPOuTZlngn0oHLkl18QzSXFSOLh14Q1SV6Gey0sQlgOP5Fmnaw3wVkvrS0cR3oAuBdUsH3gC7Etom5cX7QcLmSjHHaOISwPFsSJh3EtumPrqS1HdmEZZDxXag3yodeAPkSPSzkDCouDryOC/PWO/Svk98uz6MSwIl9ZnXE995DuLM/7FyJPoZBN5EWE0Qmz64Te/XZqRZEbBv6cAlqUqnE99xnlQ86nrLlejnP4ePv0HkcZq+BHA8KZZX/qZ41JJUkVVIM4t6m9KB11iuRD/HjjrHbpHHasMSwLG2J76Nl+A8Fkl94t3Ed5rnFY+6vnIl+jkFmDbqPLHvWxuWAI41QPy8iCHgwNKBK78pVQcg1dBrExzjmwmO0RZHAa9MfMzzCe/T4lF/t1HkMa+JfH0dDQHHJzjOqxIcQ5JqbVXiJ049TnjerTyJfq4hPKYZ69TI47ZlCeBYqxK/5HIQWKd04JJU0luJv0D9qHjU9ZQj0c8/CWvcx+MSwImleARzQPGoJamgU4jvKPcoHnX97ED8kryx5UFCDoHxuARwcrETJIeAXxWPWpIKmQM8SlwneRtPnpjWj3Im+pmISwAnN4Xw2YxpowXAMqUDVz5OApSesB3xF4Hv8eSJaf1mPuFZfMrscUPAfsAZk/yb2AmAtwCPRR6jzgaBX0QeYyZhWaFawgGA9IQdExzj5wmO0VQrAacBqyU+7sEsfVXFRPMCOnVt5Oub4JQEx9gtwTEkqXYuJO4W6b307+3/Eol+JhO7cVNbdgGczGxCbv+Ydvpb8aglKbN5xO+e9sPiUddDqUQ/k3EJYGdOIq6dBoGVi0etLHwEIAXbEC5kMU5LEUgDlUr0MxmTAHXm5MjXDwDbpghEkuriE8T/MlqjeNTVK5noZyIuAezcKsQnuvpc8aglKaNfEdcpXlw+5MqVTvQzEZcAdudS4trr7PIhS1IeU4D7iesUjygedbVKJ/qZjLsAduc44trrYeIfl6kGnAMghV+ccyOPcW6KQBpiK8JkshkJj7kI2Af4Sw+v9fl/d2I/q8sAm6QIRNVyACDB5gmOcVGCYzRBVYl+JmMOgO6k2Kq6lzs1qhkHAFL8AOAu4OYUgdRclYl+JuMAoDtXAA9EHuNfUgSiajkAkOIHAP3w63824bZ/6lu/xwGHRx7DRwDdGSQss4zhI4AW6NesZdJoT498/YVJoqivqcD3Sb/++yTgnZHHmAasF3mMrwKfjzzGRB4HbgR+A3wHuDPTebp1LrBzxOsdAEhqvAHidwDcu3jUZR1D2tn+Q8A5pFl6F7sEsGR5GDiI8Jmr2r8SV5eFwPTiUUtSQmsR37HPLx51OR8h/YXwSsJ8ghRS7HNfunyX6pfRPZv4esQ+epGkSr2YuE5wMe19lLYv6RP93E7aAdO7E8dXqnw0YRv0YkXi67BD8aiVlJMA1e/WiXz9bXSer75JdgX+h7S3qx8C9gRuSHjM2BUAVfkI1d45upeQ/CrG2ikCUXUcAKjfrR75+jZmkdsK+DFpn/EuAl5Nb4l+JtPU29AzCLkPqnR95OsdADScAwD1u1UjX39LkijqYyTRz3IJjzlEuNj9KuExRzR1AACwS8Xnjx0ArJUkClXGAYD6XWxSmzbdAViZPIl+DiEu0c9kutk1sG6qHrzEDgBWThKFKuMAQP0uthNryx2A2YS94lOv7z4G+O/ExxxtZsZj51b15NHbIl+/YpIoVBkHAOp3sZsA3ZokimqNJPp5QeLjngS8J/Exx4r9FVulqgePD0W+3gFAwzkAUL9bPvL1jySJolpfBl6e+Jh/Bl4HLEl83LHOyXz8nP5Q8fkdAEjqa7cRtxZ6u/IhJ1X3RD9L89wM8Zcqqe+4dCs2idI95UOWpHQeIK4TbPK2qPtS/0Q/nfhuothLlh9maYnubEtcHdpw90tSH4vdByB2I6Gq7ErI557yovYg1QyIViDkF6j6ot5puXI45qr9C3H1yP14R5Kyir0Irls+5GhbES7WKS9qCwmDiqrMJUw6rPrivrRSxR2SiaxHfH3cEEhSY8XeAm/aOvT5hItQyovaIOFxQh3sAvyI+Ec7OUpVd0gmsgrxdZpTPGolU4dtKaWqTCH+NuY84nOql7IycDbp1/ovAm7u8bWPEpIp/YrwXPzOVEER3pt5Pbxua+AE0q7TXwS8FDgj4TFjrUYYDMaYBTyeIBZJKm4xcb+AUmfNy2U2Yclc1b+Cl/YL+YNU+8NkfeAO0tarTndIRluT+LpVva2xJPUsdhLgBuVD7toU4ESqv8B3Wr5ONReWlYGreoh3aeXgkpXowrrE1827yJIa637iOsAtyofctY9R/UW92/KfWVpiYnMIyYtS1+OYkpXo0ibE1W1R+ZAlKZ07iesEtykfclfWJzyjrfqC3m15HFgnQ3uMZyp5VhCcSL1vkT+buPrdVz5kpWQqYPW7ByJfX/dZ0PsT9p5vmhnA2wud6yvAyxIfs1Qq5BixWz4/mCQKVcYBgPpd7Az+ZZJEkU/Ve87H2KnAOQ4h/UDjKsKA4rHEx00tdh+M2L0EVDEHAOp3sbcx65DRbTIbVh1AhNxZFt8EfDzxMe8AdgfuTnzcHNaMfL0DgIZzAKB+FzsAWDtJFPk0OVPbUMZj7wYcR9pZ7A8BewI3JDxmTrGf3X8miUKVcQCgfndH5OtLTVTrVa8JeuogV4KlrYEfk3ZwtAjYh7AnQVPEfnZjkwipYg4A1O9iO7F1k0SRT9V7zse4LsMx1wdOBZZNeMwh4G3UK8tfJ2LvAMQOnlUxBwDqd7dFvr7uA4Djqw4gwjWJj7cycBqwauLjHgp8K/ExS1gr8vU+ApDUaDsStxb6UeqfDe0nVL+uv5fyoYRt0I+JfiYzhfj8EHsVj1qSElqf+ItA6l+Uqc0DLqf6C3q35eWJ6t+viX4mswbx9d+0eNSSlNBU4n8JbVc86u6tRHj2XfVFvZuyWaK6fy1DbOcQNlhqql2Iq/8gza6/JAHxG8AcUD7knu0BnEzI4lb1BX6ysoSw1WysQzLEdiVhPkGTfYS4NrilfMhKLeV+11JTXQNsHPH6rVMFUsAvh8tUwkUsVybDFxN29evVLcCCyBjeRH8n+pnMlpGvvzpJFJJUsSOI+zX09/Ih1967iWvTMyPPvwPpN0F6ENgqMq66uIG4tjiqfMhKzWWAElwW+fpNiM+r3jaxKYivjXjt1oRJfyk3QWpiop+JrEj88tXLUwSiajkAkODSyNdPAZ6VIpAWqWoAMB/4BekT/exH8xL9TGRr4peuxg6aVQMOAKQwCTD2efOzUwTSIhtFvr6XJEArERL9rBZ57rEOAb6Z+JhVin2MsRj4W4pAJKkOziHumejPy4dcWymWVna7BHA28KfIc45Xju0yjiY4g7g2acNjEEn6P0cS1yk+BMwsHnU9bUBcWy6huzXmU4GfRZ5zvHIK7VspNZuQvTKmXb5SPGpJyujVxF8wti8edT3tSlw7/qPL830p8nzjlfPIt0SySnsS3zZvLB61snAOgBT8OcEx9khwjDYo+fz/UMKSw5SuBV4KPJL4uHWwa4JjpPiuSFKtXE3cL6O/lg+5lo4irh2/1uF5Xk9ISZvyl/8/iV/BUGexn/GbyoesXLwDID0hNvnMZtR/e+ASYu8AdLIEcAdCpsGUOzE+BOzW4fmbaD7x781ZKQJRPTgAkJ6QonPbPcExmi72F/TSHgGY6Kc3KbbvdQAgqZVWJKxxjrlF+vviUddL7iWA84HbI48/tgwS9g1ou/OIb6fVi0ctSYX8kfhOcoPiUddHziWAKxF24kt58R8i7IzXdhsT307nF49aWfkIQHqykyJfPwC8IUUgDRX7jPkW4LFx/n42YRvjTSKPP9ZxwH8nPmYdvTnBMU5JcAxJqq0Nif+ldCP9O7iO3QVwvGfMJvqJM4Uwez+2vbYoHbgklfY34jvLfk0KlGMJoIl+4uxCfHvdQNoVF6qBfv2VIk3mRwmOsW+CYzRR6iWAJvqJ96YExziBMBCQpFbbiPhfTA8TVhX0m9hEM3uPOpaJfuKtSphTEdtum5cOXJKqcj7xneahxaOuVsolgDskONbY8iDxW+E2zeHEt9tlxaOWpAq9jzS/NueUDrxCqZYAbk3Iypfy4r+QNHnwm2Q54D7i2+6g0oFLUpVWIs2t09TPr+tsN+La6h+Y6CelA4lvu0WY/EdSHxqZ+BRTbgKmlw68IrFLAC8Froo8xnjl4JyVrqnppFn699PSgUtSHbyENBegfy8cd1WOJv3FO7Ycm7XG9fUW0rTfbqUDl6Q6GACuIL4TvYz+WHJ7KtVf8EeXfkn0M9Y00qRMvo4wsVOS+tL+pLkYvalw3FWIXQKYsvRTop+x3kOaNnxv6cAlqU7mAHcR35neASxfOPaSppF+2V6v5RpglbzVra15pPm8PkC7P6+S1JFPkebC9KnSgReUYg+FFKXfEv2M9XnStONnSwcuSXW0OmmWBD4GrFc29GJilwCmKP2Y6Ge0jUhzF2YBsFbh2CWptlJtSJNin4E6SvXcudfSj4l+xjqRNG15TOnAJanO1iT8MkrRwb6ocOwlVLkEsF8T/Yy2E+kGUuuVDV2S6u8rpOlkryCkvG2TX1LdAOAjBepXZ8sBN5KmLY8vG7okNcOahC1kU3S0RxWOPbeqlgD2a6Kf0Y4jTVs+BqxTOHZJaoxUKwIGac8z62mEW8elL/79muhntJ1It2XyZwrHLkmNshxwJ2k63JsJ67abroolgP2c6GfEXNLk+x8i7Bq4YtnwJal53ku6C9k3CseeQ+klgP2c6Ge0b5CuTT9YOHZJaqTpwOWk63xfXjb85EouAez3RD8j9iFdm/6d/tmxUpKivZB0z17vBdYvG35SpZYA9nuinxHPIKTqTdWu7vgnSV36Huk64YuAWWXDT6bEEkAT/QTzCI9AUrXrT8qGL0ntsDph8lSqzvjrZcNPJvcSQBP9BFNIO9i6n7C0VZLUgzeT9mLXtMlYJZYA9nuinxGplqCOlP3Khi9J7TIAnEG6TnkJzZoUmHsJoIl+gleTbs7JEPA7wmdXkhRhXcIEtVSd88PAs4vWoHe7k+/ib6KfYAfS7EY5+vPlSgpJSiT1o4C7CLO96y7XEkAT/QTPJe3gcgh4W9EaSFIfOIG0HfXNhLsLdfZF0l/8TfQTbAbcTdq2PbFoDSSpT6xAul3ZRsqVhNUGdZV6CaCJfoL1gVtJ27a348BKkrLZlvSz4q+gvoOAlGvSTfQTrAlcR9rP0CLgJQXrIEl96X2k7bxH7gSsVrISHUq1PbKJfoKNgRtI//n5cMlKSFI/+wHpO/FzqV+2wBR3OwaBfUsHXkNbk26nydHlZFzyJ0nFLAv8lfSd+X+VrEQHrie+TgcXj7p+diT9bP8hwkY/cwvWQ5IEzCdMakvZoT8AzC5ZiaX4BnH1OaZ8yLXzamAB6S/+d+OESkmqzDakTeIyBOxVtAaT25be63EiMLV8yLXyPmAx6S/+C4HtC9ZDkjSOfyNtGte65cb/Md3Xod8T/SxD+rwRI2UQ+H/lqiJJmsxBpOvgP1s49qWZB1xO5/FfBqxcSaT1sDHdtVe3xTkVklQznyVNB39Q6cA7sCKdJQU6efjf9qtXEOZx5Lr4f7lcVSRJnRoAvk58J79D6cC7sCfhIj96RvtDhOf9u1UYV9WmA58h7aOgseV7wJRSFZIkdWcq8EN67+RvA2YUj7p7UwiPBuqYvKi0rYBLyHfhHyLMw3DnREmquWn0Pgh4dwXxqjezgP8mpOHNefE/iXCHQZLUANPoPlvgqXiLtym2IezhkPPCPwT8HJhZqE6SpESmESZtddrR9/OyuaZYATgKWEL+i/938La/JDXansAFjN/JXwX8O+Zyr7sZhKQ+d5P/wj9EyKDo3SBJaon1gH2A/YDXAptVGo06MUB4r1Jv3ztRGQQ+igNCSZIq8wLgbMpc+IcIkwn3K1IzSZL0JFOAvYHfU+7CP0RIHrRLgfpJkqRRZgFvJGyvW/LCPwRcDWyav4qSJGnEWsARwL2Uv/APAb8A5mavpSRJYhbwGkLehRxb9XZSlgAfw5n+kiRlNQPYAzie6n7tj5Q7gB3zVleSpP72fMIGTfdR7UV/pJyJ+ydIkpTNXOAEqr/gj5RHgQPwlr8kSdnMAy6m+ov+SDkXeHrWGkuSJH5O9Rf9IeBh4IOYz1+SpOx2ovoL/xBhed+6mesqSZKG/YRqL/w3AK/OXktJkvQkVc32fwj4CCHHgCRJKmgFyl/4FwLHAasXqJ/UFSefaGnWAjYC1iZsV7s2sA6wEmE29VRgeWAmMKeaENWlBwjbyj4K3ElIPHMXcD1wzXC5kjBJrU2WFDzXIPBT4GBCe0q1457SGm1N4HnAVsDWw3+uUmlEqsoS4ArgQuA84LfAVZVGFG8AuBtYMeM5lgA/Bj4F/DXjeSQpykzCrOjPETqrqmdGW+pdbiKkyn0ZzX2W/VPytM1jwFeB9ctVRZK6MwvYBziRcIu36ouKpZnlQeB7hPz5U2mO1MsAbwYOAVYtWQlJ6tQAsA3wNeqT89zSnnITcBhhvkgTxN4FGAR+A7wK51FJqqlZwH6ECV1VXyQs7S8LgW8Cm1FvKwAX0X39ricMdOYXj1iSOrQC8J/A7VR/UbD0XxkkPGLaivpaHvguS6/LbcCXgRfhpGlJNTYXOJzwfLbqi4DFMgicRL0HAs8GjiXcJXuUMC/mUuALwHa4O5+kmpsCvJGwnrvqTt9iGa/8GngOkqRkdiL8Yqm6g7dYOikOBCQp0tOofmMTi6XX4kBAknqwF2FyUtWduMUSWxwISFIHViBMWKq607ZYUhcHApI0ge2BW6i+o7ZYchYHApI0bBoh+chiqu+cLZZSxYGApL62LnA21XfGFktVxYGAlImZrerrtYTc/XOrDgR4HLicsNzwJuBGwiYotwILgIeG/82jFcVXZ0ORr0/9HZ1F+EwtP/znCsB6wDOBzYF/AVZOfM5YQ8ApwMeAv1QciyRlswxhy9Uqf3XdA/wAeBuwJTA9a43bLfa9qMLqwL8BJwD3dhBjqdKEzIKS1JMtqW7jnuuATwIvoFnbu9ZdEwcAo00DXgwcCdxF9YMABwKSWmUAOIBwO71kR3o/cBwh57mPg/Jo+gBgtFnAW4CLqX4Q4EBAUuM9DfgFZTvOm4D3A8sWqF+/a9MAYLQXES6+gzgQkKSu7UiYSFeqo7wK2Bef6ZfU1gHAiK1wICBJHSu9tv9e4CBgZoG66cnaPgAYsTnwI+oxEBjC5YOSamg+8GfKdIKLCfuazytSM42nXwYAI7wjIEnjeBXlllVdS3hOq2r12wBghHcEJImya/uXAJ8HZhepmZamXwcAI7wjIKlvbUbIoleig7sD2K1MtdShfh8AjPCOgKS+UXpt/6+A1YrUTN1wAPBkDgQktdrKhNzlJTqwBYQZ/lOK1EzdcgAwPgcCklpne+AWynRaVxLSB6u+HABMzoGApMYrvbb/25jJrwkcAHTGgYCkRtoUOJcyHdP9hK2C1QwOALrjqgFJjTCb8Ku/1ES/84ENSlRMyTgA6I13BCTV1vaU27p3EDgamFGkZkrJAUAcBwKSamM1wvP3Uh2Oa/ubzQFAGg4EJFVmAHgjcA/lOhnX9jefA4C0HAhIKmoLym3gM4Rr+9vEAUAeDgQkZTUHOAJYRLmOxLX97eIAIC8HApKS2xu4ibKdxw8IGwepPRwAlOHyQUnR1gB+TDUdxxXAOvmrqIIcAJTlHQFJXZtG2LznQartMG4jdGJqBwcA1XAgIKkjWwEXUH0nMVLuAV6QtcYqxQFAtRwISBrXCoQEO6Xy93dTK3YQ/QAAIABJREFUHgZ2zVd1FeIAoB4cCEj6Py8Fbqb6jmCy8jjwmlwNoCIcANSLAwGpj20AnE71X/xOy2Lg7VlaQiU4AKgnBwJSH5lOmOT3MNV/2XspR6RvEhXgAKDeHAhILfdC4G9U/+WOLV/E7IBN4wCgGRwISC0zDziW+nypU5TvEO5mqBkcADSLAwGp4QaANwN3U/4LewmwJ3BRxnOcDMxO1lrKyQFAM9Uts+DvgC8D7yP0Lxvj9uDSU2wEnEn5L+kjwGE88aVclrCbX67z/RlYMUF7KS8HAM1WtzsCY8tthLsExxI2ENsH2Bp/IKjPzCZcgBdQ/kt4CrDuODHNJG9a4csJqYtVXw4A2qHuAwEHB+pb2xN20Sv9BbsVeONSYpsKHJcxhuuBDbtqLZXkAKBdmjgQcHCgVloN+DblvzyLCBkEl+swzgHCMr5c8dwObNFhLCrLAUA7tWUg4OBAjTOF8Mv7Hsp/OS6i91m5B5Cvw7gP2K7HuJSPA4B2a/NAwMGBamdL4DzKf/DvB95J/Dr8t5Bv74FHgD0i41NaDgDabyrwH8ASqr9AV1UWAdcRsqy6WqEhBqoOoAvLAh8H3kPYurekHwLvJ9xqT+EVwAnArETHG20R8Acmv3g8QPjFksqDhM4vlYcJ9UjlUcK+Cqk8Rphs2oljI8/Vy14Q95N28HBfwmONDKZTWUL4/KWyGHiog383FXgJ4RfwK4GnJYyhbRYDNwHXANcOl2uGy43Awsoi63NNGQC8lDCqXKfwea8H3kUY1ab2YsJ6/uUzHFuSmuJ2QqbW68eUvxMG28qk7gOANYGjgFcXPu8i4BjgI4Tb6rlsDfwSWCXjOSSpqRwcZFTXAcA0wi/vT9D5TPtUzgb2J3zoSlifkDBog0Lnk6Q2cHAQqY4DgOcDX6P8srZ7gAOBb1J+8tVawBnApoXPK0ltM3bOwRWEFO2X0dn8jr5RpwHACsDhwH6U3fFuCPgW4eJ/d8HzjrUScCrwvApjkKS2GiSsVLgEuJgwWfpc0k5gbpS6DABeCnyV8Eu4pGsIS/vOLHzeiSwD/ATYrepAJKkPPEzYaOkUwg+wWyuNps9sSN4NcyYqjwKHUM/1qTOAH1D9ul6LxWLppzJIyDHzDsId6dar6g7ADEIWqY+QZy38ZH5F+NV/XeHzdmNnQpySpPIeI9yNPZ6l51VprCoGAC8hLLF7euHz3gF8APh+4fN2azXC86nVqg5EUmXuBn42XKYRtjnfiHDXdEPC7qNTK4uuv1wDfB74Oi1LWlRyADCd0IjvKnzeQUI2to+QNgNZDlMJv/x3qDoQScWNXPR/DPyWySenzQDmEwYDDg7KuJmwqdvxpM0sWplSF+IZwGmUv7BdSljTf27h8/bqo8BhVQchqZi7gJ/T2UW/Uw4O8roF+Azhh2Wj7wiUGgB8CXh3oXNBmNl5GGHL3sUFzxvjhYQOwC+n1G45LvqdcnCQzlWE+WS/qTqQXpUYAGxCyMxUam3/yYQNg24qdL4UZhCe+5sISGq3S4BnU8+152MHB6P/dHAwsROADxLmmWmML1JmCcdNwN6F6pTawVS/BMZisZQpL6V5ZhB+zO1J2Or3y4TspdeRb3vzJpX7CXe565JbpyMlgr0YeFbG4y8mJBE6hGameVwP+CshCZCk9rsO2IyWTCQjTPBem7CvyeiyGbAx5bdvr9JZwL/TkLsBuQcAUwj7pk/PdPzzgbcTbqs11enAromOdQ1hFDq4lH+3LGnfk2VIm1RpDjAz4fFmkzbfxKzhY3Ziv8hz/biH16R+f2cS3pNUpgBzEx4PwrbaKW9Rp/7MjPVh4NMZj18XMwg/ckbPN2j7Y4XbCIOA31YdSNVWI9/tlgNo/odnd9K1yQOEEbfqJfZ9VX1MAX5Pmu/rQ8AaZcOvnemEOwU7EQbKRwA/Iuzwt4jqb+vHlMHh+jT9GhVlS9I37PeB1UtWIqPzSNMmi4BdCseuzjgAaJeNgEdI8739VuHYm2QG4fHBeHMOmjQ4OI1wR64v7UG6hryWdLfK62Av0rXNAYVjV+ccALTP+0nzvR0EnlM49jYYb3BwOvUdHFxIn2Z2fSvxjfc48Ek6f+baBAPARaT5cJ1Ow2ae9hkHAO0zBfgT6b6/Smf04OAgwh3jK6h+pcL1hFUUfeVQ4hrtEtq5Nv7lpPlQ3QusWTh2dccBQDttTrpfm9sWjr0fzQFeTHgufwnVDALuBl6Qu6J1cgxxDXZo+ZCLOIs0H6jXlw5cXXMA0F6fJc33uLGZ5BpsTUKa+FTzsDotD9BHj31OJK6x3lI+5Ow2Jjz7i/0gnVY6cPXEAUB7LUtIQJbiwrB94dj1hM2Bowi/0EsMAu4GnlmkZhU7n7iG2qN8yNl9jvgP0GL65APUAg4A2u01pLko/LF04HqKZYAPEZL45B4E3E5YUdJqNxPXSDkzCFZhJmEjkNgPz3GlA1fPHAC02wBwNmkuCi7lrYc5wAeAO8k7CLiRkEGxlaYQP0lm1eJR5/U64j80D9GnS0oaygFA+z2PNI/1ziwduCa1AmGJYc4VBBeTNstmbaxKXMMspNwOgqX8lPgPzBeKR60YDgD6wwmkuSBsUTpwLdWzgQvINwj4brmqlLMVcY3SpO18OzETeJC4NllMSJ2p5nAA0B/WI+QsiX2/v1E4bnVmgJBXINfdgNYlc9uTuAY5t3zIWaXI/PfT4lErlgOA/vE/xL/fj9OeVOdt9GLgFtIPABYBLylXjfxiswCeWD7krI4j/kPy4uJRK5YDgP6xDmH309j3/OOlA1dXViFdLpfR5Q5g5YL1yCo2C+BXy4eczQBh2UdMe9yAKX+byAFAf/ky8e/5P2lX6vM2mkF4dp96EPD9kpXIySyAT9iE+A/GZ4pHrRQcAPSXdQkTmGPf9/9XOnB1bYCQWjj1IGDvkpXIxSyAT3gD8R+KVOkjNweOBv4KPJwgroeHj3UUJicaT90GAL7/+X2b+HY1MVBzfJC0A4DbgRWL1iADswA+Ifa24PXE3/6fSXissiQylsnK4uG6zoiMtU3qMgDw/S9nc+LzAgzSB5niWuS/SPtd+nbZ8NMzC+ATYteQHht5/pmEDUdydfxjy1l4ERhRhwGA7395pxLfjp8qHrVipNocaqQ0dpdIswA+YRbxzwTfGBlD7HyMXsqXImNui9h2TMH3v7zdiG/Dm4GppQNXzwaAb5LuO3R20egTWo24ircpC+C/EP9BmB9x/s3Je9t3orIY2Cwi7raIbcdYvv/VGACuJL4ddy0duKLMIv7x9+jy8pzB5rrIxiayuJPwDKwN1ot8/e2EJYC9eivVDKam0q6JnE3l+1+NIeBrCY7jaoBmWQC8mrDpWwr/TQPvAu1B3KjnvPIhZ3MAcW3xy8jz/y3y/DHl8sjY2yC2DWP5/ldnBeAR4trwUcI2tWqW7Ul35y3bQDrXL4M1I19/a5Io6iHm9j3AtZGvXyfy9THWrfDcCnz/q3M/8PPIY8zGxwBN9FvCctsUPkyma3VdHwHcniSKeogdAFwX+foUvyKbeG4Fvv/V+maCY7wiwTFU3iHANQmOsyGZlsXXdQBwR5Io6mGNyNfHDgBujnx9jLbt6NhEvv/V+g3wj8hj7AlMTxCLynqUMAcnxXy29yY4xlPUdQBwW5Io6iH2+V1sB/7ryNfH+FWF51bg+1+tQeL3e59Hy3aK6yN/IM1doJ2ATRMcp4jYxDe7lw85mxuJa4v1I8//TPLtYT1ZWUyDPrAZxbZjLN//6m1OfHu2aXO0frMm8ZNBhwj5PBrBLIBP+CdxbbFaghhS7FDWbUk1AabpYtsxBd//6l1BXHveiruBNtmnif9OPUjIM1BrZgF8stgNV5ZNEMMM4MzIOLopv8ZnliNi2zIF3//qfYz4dt28eNRKZR5wD/GfgayJgVJYlbgKtikLIMSvBU3VFjMI6Vlz3g5eTPjlZ+f/hDoMAMD3v2opHgMcUDxqpfQp4j8D3ykedZe2Iq6CbZs5XJcLwIjNgM8TkrQ8lCC+h4aPdSQ+8x2P779G3EBcW59YPmQltAbx+8IkfQyQ45nSHoSdsHp1PvC8RLFUZYAwee9ZwE8ij/Uq4GLi0gGrOrEXcZ/7tsdXgHdGvP5+YGXCXcUqTSMMJDcCNhguaxNim0fIgDiPJ+5e3jf85wOEOVH3DP95FXD1qPJ4mfAr9QPgXyOPsRdx19is3kr/jXKXA/Ym3P78I+GDHvvLamy5j7Cm+EjglcDyRWqmWHW7A6Dq7En85+E5xaOGFYF9gC8AfyKsb0/dvy0Ezh0+xz7ELyWvq22Ib6v/LR51Fw4lrnJNWe6yGXAw8Hvib+v0+oU5C/gQ3nqtMwcAGjEbeIy4z8NBhWLdgtCXn0M1y0gHCXeDD6Z9kx+vI65tri4fcudi9x4/tHzIHVuFMBHnIsp/IZZWLiNki1oxW+3VCwcAGu03xH0eTs8Y2xqEHxSXRcaYo1xFyInfhjsDnyG+PWq7Uu5E4ipWxy1EtwF+RjW/9LstC4ATgB2ytIS6Fft+ql3+i7jPwz2knxfyQsKmRVX80u+2LAJOptkbJD2P+HZ4VfGoO3Q+cRXLsulBDwYIky3+QPUf+l7Ln4HdUjeMuhL7HqpdXkj8ZyI2OyiECXqvIb6/rrJcBLya5i0bHyDsDxFT988Xj7pDbcgCuAtwKdV/wFOVc2lXeuUmiX3v1C4ziJ9Et09kDLsRVhZV3S+lKlcSJkY3yTeIq/N55UNeuqZnAXwGYXlF1R/oXOUsYJNkraVOxL5nap8/EveZOKLH8z6L+DkIdS6/I+ShaYLY1XILgKnFo16KpmYBXAY4ivjBSxPKAuAThBnJyi/2/VL7HEncZ6LbHR7nAJ+lP/q3JcBxwNwu26i0pxNf13WLR70UWxJXoSr2Lt8WuKbHeJtcrgN2TNB+mlzs+6T2eQ1xn4luJgLuClwfeb4mlpuo90TBAeAu4upYu/57D+IqVPK5xizCcowmzHzNVZYAnyRk9lIese+R2mc94j8X85dyjunA5wjr6avuZ6oqg4S7AXOW0lZVid2ga7/yIU/ubcRV6GeF4lyTMNio+gNal3IuoVNSerHvjdrpPuI+F5P9ul2HkLGv6n6lLuXvhPlddXMscfX6dGwAqZ+3x+5df0eSKCb3IuAvwHMLnKspngdcAOxcdSBSn/hr5Os3muDvdyKsYNom8vht8gzCkui9qw5kjOsiX79BbACpBwBrRL7+9iRRTOydhNsuq2Q+TxOtTFgBsW/VgUh94PLI1483AHgL8EvCZjx6srmEO8wHVh3IKNdGvv5psQGkHgDEpmm8LUkU4/s4YTcu9yqf2HTC+tSDqw5EarnYOwAbjvrvAeBwwiYx9m8TGyDM+/oC9UgedFPk65dNEkVCdcwCOEB4w6t+DtW0cgz1+JI0Xez7oHbakbjPxciGMAOEDdSq7i+aVr5P9YOlTYirw5WxAaSe/V23OwBTCBMt3pr4uJ26B7gQ+BtwBWE5zj8Jyz8eAx4c/ndzCLeo5gJrEVJ9rk9I3PFcwt7ape1PSDTxdrwQSanFPv9dj3ABOxp4R3Q0vWly//ZawuDp9YTVUFV4OPL1tboDUMcsgF+JjKfb8hjwC8JFc1PSbdqxMfAuwvO9HHtxT1aOTFSHfhXb/mqnqcRvLnZS5Ovt3+CbVHenc24H8U1W7i8f8sTqlgXw0Mh4Oi2DhImFrwOWSxj/RJYlTNT7DWHkWqKOHy1Qr7aKbXu119WUvdjZv41fvlqgXuOZ1kWM45VF5UOeWJ2yAMbmI+ikPEKYWxC9FCPChoQPb4lRc1W3GZsutt3VXr+mzAXO/m3p5X2F6jRWa/qHumQB3Jm82f0eJcwkrdNSwqcRsn4tIF+9FwLblapQi7TmC67kvk3+C5v9W2dlMdVsRd+a/iF2d6MTE8SwFmESSq4PyY+pd8a89YAfkK/+txOf66HftOYLruQ+Tb7vqv1b9+UBwiY9JbWmf4h95h77HGY6cHZkDBOVm4FdIuMraQ/CGtMcbXEOYU9zdaY1X3Al9z7yXczs33orlxD2iSmlNf3DMcRV5NDI838u8vwTle/QzMxayxNiz9EmnytYj6ZrzRdcyb2OPN9P+7e4cnTBerSmfziRuIq8JeLcLyL9jNHHCctdmm5/0j87Wwy8oGQlGqw1X3Altzv5Luz2b72XQWDPQvG3pn+oKgvgLOCqyHOPLXfQrs00nk/6uRF/p+ytsqZqzRdcyW1D/gu9/Vtv5WbKLHtsTf9wC3EV2aLH8x4Red6x5UZCYoq2WZ/0644PL1qDZmrNF1zJbUr+i739W+/lCwXibkX/UFUWwC0SnHd0uYKwkqCtVift3ZJFwOZFa9A8rfiCK4s1KXfht3/rviwGtsoccyv6h6qyAJ4eed7R5Uba/eUYsRYhD3mqdjulbPiN04ovuLJYiXIX/xuxf+ulnJ053lb0D1VkAdw+8pyjyx2Mv792W61P2mdmLyobfqO04guuLJanzMXf/i2u7JUx1lb0D3sSV4lzuzzfAPDnyHOOlIXAC7uucfNtS7rZs+eRbmOQtmnFF1xZzCb/xd/+Lb5cRr4Ng1rRP5TOAviKyPONLm1YCtOr2PdtdNm7cOxN0YovuLKYSv4BgP1bmvK6TDG2on8onQXwT5HnGynf6aGuvVgJeClh1vwZhGxTNxPybj8O3EuYvHIaYebpv1IuF/cPSdOWuZ+VNVUrvuDKJufF3/4tXf92Uab4WtE/lMwC+NzIc42Um8mbAWtZ4M2EwcpgD/ENEh5zvBOYlzHOFQgThFK06dYZ42yqVnzBlU2qi7392/hS9m855jq1on8omQXwe5HnGim5cl+vBBwFPJgoziHgIUL63dUzxRw7h2OkfCtTfE3Wii+4sknVR9i/TSxV//bTDLG1on8olQVwDcKklthG+3FEXScyHdiPvLsRPgIcRp7NeH6aIL4F9JbPoc1a8QVXNjn6Cfu3p0rRvy0G1k4cVyv6h5uJq8SzOjzPByPPM0R4LrVe71Ud13rAhQli67RcCGyQuA7rkGbW7IGJ42q6VnzBlU3qvsH+bXyp+rf/SBxX4/uHklkAY+80DBH24E5pd+CeBHF1Wx4gTLxJ6egEcZ2fOKama/wXXFml7hfs3yaWon+7OHFMje8fSmUBXJ/eJpuMLo+QdvbpfqTfhbCbsoi4XRTHWhV4ODKmQWDdhDE1XeO/4MoqZX9g/za5FP3bELBZwpga3z+UygL4n5HnGSLt5g5voNovx0gZJO2X5KsJYvpAwniarvFfcGWVsi+wf1u6FP3bfyWMp/H9wx7EVeC8Ds8Tm/lvkHTPlfYm7SZEsWUR6W6XPZ34Oy3nJIqlDRr/BVdWqfoA+7fOpOjfUuY8aXz/UCIL4HLEfyDPjK3osLUJiS2q/lKMLQ8CmySq468jY1kMzE0US9M1/guurFJ9/+3fOhfbvy0iXf9Waf+QIr9x7NrN2zr4N9sB0yLPc3zk6yGk7jyBvIkrerUcIUdCbDsBfDfy9VOBFySIQ1Jn7N86F9u/TQN2TBBH5VIMANaIfP3tHfybl0SeYwHwi8hjAHyIMBipq62B9yY4zs8JbRZj2wRxSFo6+7fupOjfYjdY2go4KfIYtRCbBfAmYLelnOPcyHOk+HLMA+6PjKPUrbLVEtT35Mg4fpsghjao9Bafai/Fd97+rXux/dsfejzvyIU/dh5CbfqHFGvzB4H/ZfznKlMIy1tijr9/gnp+PEE9S5XPJKjveyJjeISQPazfNf4LrqxSfN/t37oX2789SHd30FNf+GvTP9xCusrcBrxszPHnJzjuppF1nEdITFH1B7/T8hDxz/E2TRDHRpExtEHjv+DKKsX33f6teyn6t6d3cJ7NgR+R/sJfm/7hMdJWaOzdgNhlhncDA5F1fHviOpYo74isM4S2i4lh9wQxNF3jv+DKKvbzYf/Wu9j+7ZWTHDvXL/6k/UOKSYCxH77xjvcW4HLC3IDY0e1IDusYr4p8/WiXErbAfDowk3Cb/BmEW1KXJzzPGxIc45LI12+YIAZJE7N/611s/7beOH83cuG/kHA3O/X1cbTHMh67Y5eTb3QzCNwZeYzPR9ZvJdIkxXiMMNKe7AMxhfA8L8VdlUHgaZF1/2xkDEdFnr8NKh3hq/ZiPx/2b72L7d++OOpYpX7xjy5/i6x/kjsApyQ4xkQGiM9t/ffI1+9E/NrTBYRHGccyeac+CHxt+N/GLlMZIH755NWRr0+9o5ekJ7N/611s/7YuZX/xj/Wb2AOkGAB8j5D5ra5uiHz95glieB/dLYv7LWHr41jPj3x9p/s0TGTlyNdLmpz9W+9i+7ddqebCD2EwdWzhc07ocMrd9ui2xH7AY/McXEJvH44pwGWR545dH/zMyPP/NfL8bRD7+VW72b81t3+rsnw5su5JzSLcjqi6UcYrsY8Qro48f8xs1XdHnvuqiHNDSPMcc/4bI8/fBrGfX7Wb/Vtz+7eqypmEa26tzAKOoewkiE7KnMh6/TPy/DEbWMSuVf1nxLkhLMWMOf/dkedvg9jPr9rN/q25/VvpsgT4EmF1RW3tSkjvW3VjjZQZkfW5L/L8MW/WnMhzx060mR55/scjz98GsZ9ftZv9W3P7t1JlkDDRcMvI+j5Fip2VxjqD8FzqSODNlJ8cMVbsBMXYL1hM/WPfnyWRr4+dJDoDL2KxbD9Nxv6tdykmwec0RFhl9zHgLzlOkKsBHgDeSkjkc1Omc3Qq9nbJwsjXrxfx2nUjz31P5OuXj3y9pLzs33pX5/7tTOB5wMvJdPGH/COgXxHuBhxHdb9kVoh8/T8iX79TxGt3iTz3XZGvr/MXRJL9W4w69m9nAs8FdgYuyH2yErdAHiRkiNqd+HWXvRhvh8Fu3Bj5+v3orZ2nEh6hxIidJLNc5Osl5WX/1ru69G9DhO2Jt6bQhX9EyWcgI3MDjqfs3YC1Il9/feTrNycMgLr1LuL3Qbgo8vUp9t2WlI/9W++q7t9GLvzPJvOt/omUngRRxdyA9SNf/8cEMRwJbN/Fv98J+FyC854T+fqYJT6S8rN/612V/VuRZ/x1Npew7W/uvAFHJIgz1WYZ72TyQddU4ADCxJwUS0di98z+aoI4LBZLvmL/1rvS/dvIcr6tIuNulV0IE1FyNfoZCWI8O2E8lxEyYG1KWAe7HOE22gcJuzulOs8fEtT7rITxWCyW9MX+rXcl+7dfA89JEHMr5bwbcA/xuQjemSGu3OWNkXWeQmi7quthsVgmLvZvvSnRv/mLv0u5sghuHBnXHEJa26o/9J2W+4lPEbp1DephsViWXuzfupezf2vMhb9umZDOIOzQlDpvQOx600cJdyia4n8JMcfYMUUgkrKzf+terv6t7yf3pZLybsCpCeJZnTDyrHr0u7RyF/GTYwBOq0FdLBbL0ov9W/dS9m+N+cXfNHOB/yF+bsCjwLIJ4mnCs7J3JajnioSNNqqui8ViWXqxf+tOqv7NC38h7yD+zdo3QRxTCGtPq/4STFTOJ80GT/vXoC4Wi6Xzsi/x7N86L2fghb+YucSvHT0rUSybAPdGxpKj3AWsk6iOde4ELBbLU4v9W+di+7fFwMqJYlGHfk/cm7YE2DBRLC+iXrfIlxDmTKSwCfmTM1kslrTF/q0zKfq3FNkT1aUPE/9B+mrCePalHhfKxcCbEtZrZK+GmHJIwnikfnAo9m9N6d8OTBiPOrQ58W/co8DTEsb0r4QUmFV+Od6QsD7rkiZN50YJY5L6wUbYvzWlf4vdxEg9upz4Ny/FJhSjbU81z8zuA/ZKXJevJIir2FaWUstciP1b3fu3vyeOSV14P/Fv4AJgfuK4Ngb+lCC2TstvSTchZnQdUjz3+2DiuKR+cSD2b/ZvmtDTgMeJfxN/kCG2KYTlijmTadxL+ADmyOD4qwTxLQLWzBCb1A/WJs3OfPZvT5Wif3uctI9Y1IOfkubD9vJM8a0GHE7ajSbuBw4DVsgU82sSxfn9TPFJ/eJH2L+llqp/+2Gm+NSFnUjzZt4MLJ8xzjmEhBO/p7eJJwuB04G3kSb15URWBm7tIb7xyvMzxin1g22xf0spZf+2U8Y4KxG7jWRVziVsuBDru6SdZTqR5YAdgBcC6xNmo64FTB/+/wsJI+orCHtmX05I7HFf5rgGgF8AeyQ41p+BbRIcR+p35wHPTXAc+7d0/dsFpHlPlMDLSHf7af/CsdfJf5CuHfcpHLvUVq/F/i2FlP1b6hUJijAAXEqaN3YB/XnrenvSrIkdImx7WbetpaWmmgJcgv1bjJT920U09255a72CdKO7f9JfyWu2IO1s3p3Lhi+13m7Yv/Uqdf+Wa0KlIp1Jujf5OsKe2G03H7iNdO12Rtnwpb5xFvZv3Urdv6XaZEkZbEaadbMj5SrC5JW2mg9cS7r2WgxsWbQGUv94NmEjHPu3zqTu3xZi2t/aO4p0b/gQcD1hJmvbbEHakfEQ8PmiNZD6j/1bZ3L0b0cWrYF6Mhe4ibRv/F2EJS1tsT3pM3hdS1gLLCmfZQi37+3fJpajf7uFvHkUlNAOpL1VNkSYPfu2kpXIYICwFCblY5Ihwjah2xesh9TPdiT91rz2bxOXJYQ2V4N8jrQfgpHyQ/KlqMxpZeBU8rTJVwrWQxJ8Ffu30XL2b58pWA8lMpN0uQHGlhuBPYvVJN5rSJf+cmy5gNDWksqZRfju2b/l7d8uAmaUq4pS2pi8e1f/lPTbVKa0MWl2vZqo3E1I8ympvHUJ30H7tzzl3uFzqMF2Iv0zodFlAXA0sGqpCnVgXcJt+RT7XU9UlgC7lKqQpHHtRvr5TvZvYcmfz/1b4l3k+6CMlIcJz+WeXqhO49kEOJ50KS8nK+8tVCdJkzsA+7fU5e2F6qRCjib/h2aIMDv318C+hCWJuc0jbPDxJ9LPDJ6ofLJAvSR17lPYv6UqXyhQLxU2ABxLmQ/QSHkMOBl4D/CMRPW4R2PdAAADfElEQVSYAmwNHAicRt7bYOOVYxPVQ1I6A8Bx2L/FluPo441+2l7xKYRbSG+q6Pz3EHb1upiQhvNWQtKie4DHgQeAaYT9tOcOl1UIt902IUxI2RJYsXTgw04A3kh45iipXqYC3wFeV9H5m96/HQ/sR7jToJaaCnybsqPKNpRjcItfqe6mEL6rVfcXTSvHY//WNwaAw6j+Q9eUckRPrSypKgdRfb/RlHI0Xvz70v7kXSLY9LKYMMNYUvO8j/AdrrofqWtZRPPTHyvSHqTfOKIN5S5cBys13Y6E73LV/UndygPArhHtqhZZFziH6j+UdSl/IeylLan51gLOo/p+pS7lAmDDqBZV68wg7Pdcaq1pHcsS4IuEPOOS2mM24Vl3zqyBdS9LgE8D0yPbUi22O2EzjKo/rKXLtcCL4ptPUo29iPBdr7q/KV1uAHZO0H7qA8sAn6U/JgguJvwyWCZJy0mqu2UId/r6YYLgQsIqpjlJWk59ZQvgbKr/EOcqpwPPTNZakprkmYQ+oOp+KFf5HbBZqsZS/9oDuJDqP9CpymW4k5+kYFfgcqrvl1KV8wiPcqVkBoBXElJdVv0B77X8Cdgbk15IerIphL7hT1TfT/VaLgT2St0w0lgvBH5AyG9d9Yd+aWUx8DNgmywtIalttiH0GU2YA7UA+B6wXZaWkCaxOnAwcCnVfxHGlosImcBWy1Z7SW22KqEPuYjq+7Ox5VLgw4TNhKTKbUT4QF5ANWttFwF/BA4FNs1cV0n95ZnAIcAfqObOwBJCsrYDgQ0y17VvtX074FJWBLYl3JbaDng2IdFQSg8SJvP9BTgL+C3wUOJzSNJYywM7ANsTtu/dYvjvUlpA+DF1NmFewjnAfYnPoTEcAOQxjZBadxOe2Pd6DWDecFlx+M/FhHWrEEa89wN3AncQ9ta+HbiGMBHxesLIWJKqNACsTxgMrA+sOVxWJzxGmMUT6/BnEbKt3j+q3AfcROjbrh7+80bCnQZJkiRJkiRJkiRJkiRJkiRJkiRJkiRJkiRJkiRJkiRJkiRJkiRJkiRJkiRJkiRJkiRJkiRJkiRJkiRJkiRJkiRJkiRJkiRJkiRJkiRJkiRJkiRJkiRJkiRJkiRJkiRJkiRJkiRJkiRJkiRJkiRJkiRJkiRJkiRJkiRJkiRJkiRJkiRJkiRJkiRJkiRJkiRJkmrv/wOmBSCS9FSd1QAAAABJRU5ErkJggg==;" vertex="1" parent="1">
          <mxGeometry x="88" y="140" width="36" height="36" as="geometry" />
        </mxCell>
        <mxCell id="a8-rNCmPUpZNnrMcsMXF-13" value="" style="shape=image;verticalLabelPosition=bottom;labelBackgroundColor=default;verticalAlign=top;aspect=fixed;imageAspect=0;image=data:image/png,iVBORw0KGgoAAAANSUhEUgAAAgAAAAIACAMAAADDpiTIAAAAA3NCSVQICAjb4U/gAAAACXBIWXMAABA5AAAQOQG8bPLFAAAAGXRFWHRTb2Z0d2FyZQB3d3cuaW5rc2NhcGUub3Jnm+48GgAAAwBQTFRF////AAAAAAAAAAAAAAAAAAAAAAAAAAAAAAAAAAAAAAAAAAAAAAAAAAAAAAAAAAAAAAAAAAAAAAAAAAAAAAAAAAAAAAAAAAAAAAAAAAAAAAAAAAAAAAAAAAAAAAAAAAAAAAAAAAAAAAAAAAAAAAAAAAAAAAAAAAAAAAAAAAAAAAAAAAAAAAAAAAAAAAAAAAAAAAAAAAAAAAAAAAAAAAAAAAAAAAAAAAAAAAAAAAAAAAAAAAAAAAAAAAAAAAAAAAAAAAAAAAAAAAAAAAAAAAAAAAAAAAAAAAAAAAAAAAAAAAAAAAAAAAAAAAAAAAAAAAAAAAAAAAAAAAAAAAAAAAAAAAAAAAAAAAAAAAAAAAAAAAAAAAAAAAAAAAAAAAAAAAAAAAAAAAAAAAAAAAAAAAAAAAAAAAAAAAAAAAAAAAAAAAAAAAAAAAAAAAAAAAAAAAAAAAAAAAAAAAAAAAAAAAAAAAAAAAAAAAAAAAAAAAAAAAAAAAAAAAAAAAAAAAAAAAAAAAAAAAAAAAAAAAAAAAAAAAAAAAAAAAAAAAAAAAAAAAAAAAAAAAAAAAAAAAAAAAAAAAAAAAAAAAAAAAAAAAAAAAAAAAAAAAAAAAAAAAAAAAAAAAAAAAAAAAAAAAAAAAAAAAAAAAAAAAAAAAAAAAAAAAAAAAAAAAAAAAAAAAAAAAAAAAAAAAAAAAAAAAAAAAAAAAAAAAAAAAAAAAAAAAAAAAAAAAAAAAAAAAAAAAAAAAAAAAAAAAAAAAAAAAAAAAAAAAAAAAAAAAAAAAAAAAAAAAAAAAAAAAAAAAAAAAAAAAAAAAAAAAAAAAAAAAAAAAAAAAAAAAAAAAAAAAAAAAAAAAAAAAAAAAAAAAAAAAAAAAAAAAAAAAAAAAAAAAAAAAAAAAAAAAAAAAAAAAAAAAAAAAAAAAAAAAAAAAAAAAAAAAAAAAAAAAAAAAAAAAAAAAAAAAAAAAAAAAAAAAAAAAAAAAAAAAAAAAAAAAAAAAAAAAAAAAAAAAAAAAAAAAAAAAAACyO34QAAAP90Uk5TAAECAwQFBgcICQoLDA0ODxAREhMUFRYXGBkaGxwdHh8gISIjJCUmJygpKissLS4vMDEyMzQ1Njc4OTo7PD0+P0BBQkNERUZHSElKS0xNTk9QUVJTVFVWV1hZWltcXV5fYGFiY2RlZmdoaWprbG1ub3BxcnN0dXZ3eHl6e3x9fn+AgYKDhIWGh4iJiouMjY6PkJGSk5SVlpeYmZqbnJ2en6ChoqOkpaanqKmqq6ytrq+wsbKztLW2t7i5uru8vb6/wMHCw8TFxsfIycrLzM3Oz9DR0tPU1dbX2Nna29zd3t/g4eLj5OXm5+jp6uvs7e7v8PHy8/T19vf4+fr7/P3+6wjZNQAAJnBJREFUGBntwQmA1HP/B/D37FW7W1u2u5RKh06lnCW5jw5CSIQotxx/CQ+RIxIhIiFCbhFylhJCiiRdKl26245tt92dmff/6d79fr4z85vd32935vF5vaCUUkoppZRSSimllFJKKaWUUkoppZRSSimllFJKKaWUUkoppZRSSimllFJKKaWUUkoppZRSSimllFJKKaWUUkoppZRSSimllFJKKaWUUkoppZRSSimllFJKKaWUUkoppZRSSimllFJKKaWUUkoppZRSSimllFJKKaWUUkoppZRSSimllFJKKaWUUkqpkkpq0//Fz4vrk2E9D0FpOfjGkRM/L64Jo/7T94zGUKbTlrOEvjgYpeGQiX6W2KJhx/qgDqjwAktuy2Xw3hmb6Y41j2VC7fMaXdENXmuXS9dsGZQKtds5dMfaqvBW2gq6adXlUP9VYS1d8ga8dQNd9mo5KJxMt2z1wVML6bYZNaEG0jVN4KWKdN+qdvjXe5uu6QUvtaMHsprg324iXdMXXmpDLyyojH+5wXTN4fBSbXri80T8u3WhW3KT4CXfMnpiOP7dqmbTJZ/DW0PoiWBb/LvdSHfsaARv1d1JT3yJfzffVLriBnjtaXrjVPy71Z3BkguO8MFrNXPoidk+/Lsl3p7LElpyAkrBMHrjLPzb1evz9A9/m9ZSyvpb+uuT+7unozRU3Ubpb+eyaPcilEWlzRSmoUw9QOkkONew53MBSusToCzupnQyylLlLAo/ICrHLaZ0PJRFhQ0UfkCZupvSWYhK+tcUHoeyGUjpDJSlCuspzEJ06mym6Scom7S1FH5GmbqN0rmIzsU0rYSyuplSN5Sl1H8ozE1AdFbQUJAAZVN+NYXZPpSl6yldjOhMoKkGlNX1lM5FWUpZTmFRIqLyH5raQlmlLKfwuw9l6SpKVyAql9J0IpRdP0oXoiwlLaawLAXReJSm5lB2yUso/JmAsnQJpWsRja9oqgwVwuWUeqMsJcyjsLo8nEvZTEMOVCiJCyksSkRZOp/SLXDuIZqWQIV0MaXLUZZ8v1JYlw6njvLT9A1USAnzKCxJRlnqSulOONRsMYW7oELrSakfytSPFDZXghMJ/5dLqTlUaL7fKCxPQVk6hdL9CCGt/j5t+j77By0WQYVzNqXrUKamUthWBRY9x8zxM5JhUGH9QmFVeZSl4yk9CqH2p3SiPVRYZ1G6CWXqCwo7asDQeTOd+AgqghkU1qSiLB1J6SkUVXkVnfA3h4rgFEq3oUx9RGHnwSjidToyBiqiaRTWp6MsHR6k8DwKa0NHcmpDRXQCpUEoU29TyG+IQq6hI5dBOfA1hU1Vy5elNgEKr6CQMXRiGJQTxzIe+JvigJ/owCcJUI5MYjx4Cwd8wMh+rwjlTHvGg2Br7HcXI/qiMpRTHzEefIj9TmMkIxKhHDs8yHhwJPYpv4Bh5fWFisa7jAefY7+j/Qzj/aZQUWkRYDzoiP0eYkjfHgMVrfGMB1Oxn+/abNpse7sLVPSuZFw4BQc0+DSHhtUvnFUOqhgq/8O4MAOFJba8bNA+Ay7o2LA8VDG9yDjRFcoDJzFezPZBuS7tL8aN86BcN5zxY14ClMva+xlHekO5K3kO48niJChX3c34ciWUmw7byXDee6T0zWY4y1Og3OP7jmF9gFJXdxvDuh7KPdczgiNQ2iYxvH9SodxSbxsj+Bil7BJGchuUWyYxoqNQqqptZCTrK0C5ozcj+wKl6k1GdjeUK6ptoAMdUIq60YGsylBuGE8npqD0ZKyiEw9AuaALnemMUjOajmyrin81X3rNxkec0LVX/9sG33/LFT06t6lfyYeoVVxBae0mCtNRWjoHKc2hNAyR+SrWbtr+xO69r7l9yODb+vfqesIRjWum+xDXEhqcMeC5KasDFAJZS2dPef/Ri5omwKlnadHzTkqnoXSkLqa0re4nFHJqIrTkpt1vH/PtuiAtAqunPDfgjAYJiDuNLn3w3bm5jCj7+2eualcOkXUMUvoQ6esp/IjSMYwW16JtkMLTsPG16jd84sICRpQ7990HL22EeFH7krHLGY38Oa8M6JSGcMotoLSlNnAbpS4oDe39lL71Ae9R2FkXpmbXvbuBUVk+9pLaiHWZ5z47n8WSM+GSygjpIVr0A5C6hsIslILkOZRymwBoEaDwAgpr3P/NNSyW+c+em4mY1eyh2QGWQP7n/avD6vACSt/48F83UToH3vsPLQZhlzcoFByKvXzHv7CKJRGY/VAzxKBqN85kyQWmDagHIfEXSjmNsEu5VRTm+OC1ZjspzU7CLo39FMZht8ZDltIFM2+shphS7vyJ+XTLzDuboKjbaTEQe1xLqSc8lvA9pYI22ONlCoFmQJXrZtAt+RPPL4dY0XF0Ft315ckopFEOpVmJ2CPlbwp/JsBbN9LiYexVP5/C++dOyKOrskZ3RAxIuvRPeuCXngnYy/cNpYI22OdKSr3hqUO2U1pQHvs8x9Lx56VJKFsp/ZfSI4uvLo/d+tHiYeyX9BeFRYnw0ueUgh2xX51clpKl/VNQdtIGrKKH1t5VGUDtLZQWlscBfShdDg9dRounUchTLDWrBqShbGTcuZ4e2za8DiZQCh6PQhIXUFiaDM/U2ETp7woopMYOlp71d2ag9FUYksVSkPcZLUahiF6U+sEz79LidBTxKEtT1pAKKGXnr2LZWZmBIhL+oLA8BR7pQYtXUFSVbSxVq85HaWr0OctSVxjOo3QdvFH5H0prM2G4n6Xs80YoLeUG57IsvQmT71cKq8vDEy/SoidMlTazlOUOLodScdpilqmN1SB0p3QzvHAyLSbAlHivn6Vu8WnwXp13GJXgii9H3ntLv4u6dGrbqGb1xkee2vOq/3vwmdc+npnDYroEFjMprE2D+9KWUMqqBUO96YyK/6/Pnr7zxsvPO/24Vg2q1mzUtlOXi/rdcu/IL1cEGZV36sBjF2+jU7m/vnVfr7bpCCGx2UWPfLaGUfsMNmdSuh3ue4IWV8JwYRad2j551C1dmyQjhPS2ve5769dcOrXtYngpdQydyZt2X6cUOFD9tNvfWMEobK8Hqx8obKgAtx0VoPQ1iqowls5s+eT2o5LgQEqn+6bl0ZkxqfDMYb/TAf9PQ09NQzTa3vcbnboRdidTugsuS55LaUdDFHHkYjqw/cNbjkhAFNJOHfqTnw78fhg8cmk2I/JPuigDxXDITZML6MD3CQhhGoXNleCuwbS4FYUlDMpnRLnvn5+KYsi4aJKfEWVfCi+kvcyIZt1cA8V2UO93tjOShY0QQidKg+GqFnmUfkpAIXWmMJKCz/pkoNhq3DyLEb2cBtc1/4MRrHykBUqo4i1/M4KNxyOEryhsOQguSviRUn5LFNJjEyO5uSpKqMUjKxnBH83hsgt2MLxvTk+ACxIv+Inh5V0Ku2MpPQQX3UyL+1DIQEY2ACWXcPo3DG/HBXDVjUGG9VkHuKbjhADDesAHq0kUtleFaxrsoPRHCg54jA6sTYMbOnzGsII3wkUPMZzghPZwVaNndzCct8rDpj2lYXDNV5QCR2O/xJfpyB1wR/sJQYbzENyS+CLDCLzZCq5r4mc4M6rD5iMKO2rAJX1pMQL7lf+QzmzKgEtavRlgGC8mwhWpHzGMb1rAA68zvGUtYHF4kMIIuKNmFqWladgnYxqdGgzXtPiGYXyUChdUns7Q1vaGF85kJFuPhcW7FHJrwxXv0+IU7FPjVzq2NRPu6b2WoU2vjBKrM5ch+Z+uBC9UXM6ItrSF1CJA4Rm44TxavIR9GixmFB6Giyo97WdIc+ughOovZ0g/toU3nqEDG5pDGk8hrx5K7qA1lP6pjL1a/cOQ1lHIrg43tf2RIS2vjxKptoihbOnngzc6BOnEP4dCaOqn8AJKbiwtemCvDlkMZdPZHSk9AVf5+m1hKIuqoQQq/sJQZjaAR8rNpzN/14XwKoX8BiipU2nxLvY6IpuhfFcX+JxCbh24q8FMhvJLRRRbytcM5ekUeOVBOrWoJkyHFlAYixJKX0Zpcw3sUWc1Qwg8lATgSEqj4LKUpxnK1ykopoR3GMKW8+CZ1vl0bG4VmMZQ8DdGyTxJi8uxR/pshrDmFOz2IYX8+nDbeVsYwjsJKJ5nGcIvDeGZxJmU/AzhlwwYDsmj8DpK5JgApS+wR8IEhvBFdezROkjhZbiu4S8M4VkUy2CGMDIF3vk/Wgy63k+7b5NhGEUh0AwlkDKPUnZ97DGMdgV3+LDP2xT8TeC6lJEMYTCK4Rra+fvBQ4fmUPo1Cd120O5pGOrspPAOSmAILW7CHlfSbnMHHHCYn8J4eKCfn3bXIGqnB2iVew68NIVSwREA2q+lXS8YnqIQbI1ia5VP6YcE7HZiPq3WtkZhr1IItIQHzsmlVeB0RKn2elpldYSXrqLFI9il/nxaZbdAUTVzKExAcSX+TCmvGXZrsplWK5qgiIb5FN6HFzpm0Wp9bUQlcSqtVrWEl2plUVpUHrsdNJVWCyqiqMcoHYFiuo0W92C3zEW0WlwPhtGUjoAXWq6i1dREROMBWs2vB099QCl4AvZKGU+r91BUte0UPkHxHJpDaU4ydkmeSqu5NWE6eCeFT+GJevNp9QCicGqANjOqwFPn02I09kt4i1a3oaiHKR2NYplCyd8euz1Hq58zIT1F6Vh4osoM2gROhWO11tHm1wx46qC1lFZVwgHJk2hT0AlFZG6l8AWK4ypaPIbdTqXVtIqwqLGDwmR4I+NX2qyrBYcSptBmSQ14aywtuqOw1Om0WVMLRdxPqSOiV3sLpb9SsUuFv2kzKRVWj1I6Ed6osYQ2UxLgzH20WXsovHUKLd5GUZVm02Yyiqi0mcI3iN6HlIInYrdnaPNdCuyqbKPwPTxy6Fra3AdHOgdosa0tvJW+lNKm6jBUW0Cby1HE3ZRORLQuoMUL2O34IC2WVUMo91M6Ex5pu40Wgc5wIGUhLfJOgsdG0OIyCHWX02JjVRRWcSOF7xClzHWUVlXCLqmLaLGtFUKqtJnCL/DKSXm0WJiCyO6mRaAnPHZ0gNIXsGiSRYtXUMRASqchOq/Sojt2e4wWgW4I405KPeCVngFa3I2I6ufQ4hZ4LHkupez6sOkepEVnFJa2lsJPiMoZtHgLux3pp8XtCCd9HYW5PnjlFlrk1EckE2nxPrw2mBYDYPcoLRaUQ2G3UOqKKFRYTmljdeySMpcWYxHeLZQugmfep8VERNCdFksqwWPN8yjNSIBd4jRaDEZh5VdTmIUojKTFJdjtflp8l4Lwyq+msDARXqm0hBbdEVbqMkp57eCxhBmU8loglFprKe1sgsKup9QDjnUIUpqE3VrnU1pWDZFcS+lyeKZdHqVlqQjnIVrcAK8NoMVghNbZT2kKCktZQeF3HxwqN5/StnrYJXEWpR2tEFHyMgpLk+GZG2jxEMJomkfpPXitfjalP1IQxiBa9EFh/SldAIcepMX12K0PLW6FA1dQugbeeY9SXlOE9iWlJZXgtS8oBY5GOL5PKa1MQSHJSyn8mQBHDi+gNN2HXRIWUPo5EQ4kLqKwqjw8U2kJpS8RUgdK/iPhtctoMQLh1dlG6WoUdgWl3nAi8RdKO5tit4so5beCI70o3QzvHOmn1AGhfEZpJLxWfROlZemIYAClZckoJHERhUWJcGAgLe7Ebr65lB6AMwlzKaxLh3dGUvoMIbSjtK4yvPY2LU5FJImzKPVFYb0pXYHIGudQ+jUJu51LaX45OHQupUHwTuV1lNrB7gNKl8FrZ9PiFUTWPkBhcSIKSfiTwtJkROKbSqngCOwxm0KwIxybRWFTBrxzGaUPYNUiSGG6Dx6rtJrS2kw48DSlS1DYBZT6I5KrafEI9uhK6Vk4dxalwfCObzqFYAvYvE7B3xpeG02LnnAiYzWF+QkoxDeHwooUhFdnK6WF5bHHTxRWVkQUvqewNRPeae2n8DosDvVTGAGvdQ5S+hDO9KR0IQo7h9L1CO9jSsFO2OM0Sl0RjZMoDYWHRlDwHwppDIV/MuCx1MWUttSGQ19RmOtDYbMorC6PcHrRYhT2mk5hEqIzhUJ2dXgn4x8KYyDUzaNwHbz2KC36wakOlHqgsC6UbkYYVddTWlkRe5xIqSOicxylEfDQdRTy6sI0lMI/5eCxI/yUvvHBsSkUvkURP1JYm4bQXqdFF+w1hcK3iNYkCrl14J1y/1AYCkPCSgq3wmNJv1LKaQTnOlMINkBhp1EaiJDOosUb2OtwSmcgWu0oPQcP3UphZQKKOoXChjR47E5aDEQ0plP4D4qYTmFDBYRQcQWl9VWx18MUZiN6H1DIrw/vpG2gcAqKGkfhLnisaS6lWYmIxmkUFqKIzpTuRgijaNEL+/xFoSei1zJAYSw8dBeFcSiiQjZNWRnwlu9bSgVtEJ2fKByFIqZQ2FwJVscHKX2MfdpRWJiAYhhPwd8E3snIoim7AgrrQ2EIPHYtLR5GlLpSGIkiOlC6DzblF1LaejD2eZTCFSiOJn4K4+GhIRT6oLCvadqeCW8dvI3SwvKI1m80bUhGEZ9T2JoJi6G0uBr7LaNpRTKK5WUKgZbwTuZ2mr5GIXUDND0Pj31CKXg8onYdhe4o4ihKD0FqW0Bpqg/7HEXhJhRP/XwKH8BDz9MUqIsD7qRwHLzVixajEL3MPJreRVETKWyvClPSbEq5TbDfcJq2pKGYRlFqB+8cR+FOHDCfpsXwVtX1lFZmoBjeo2lnZRTRNkhhGEyDaHEH9vMtp2kciqtOLoVJ8NBimuZjv5YU7oW3XqdFVxRHNwpXoaj3KeyogaKa5FKalYT9jqXQDcX2BKXj4J17KbTEPjfRFGwAT51Ji/EolqR1NE1AUS2DFEagCN+3lAra4IARNG0ph2Krnk1hCrzTIEjTTdjnQ5qmwVMVl1PaWA3F8wRNG30o6i0KubVR2HW0eBgH+FbRNA4l8DClk+CdaTR9iL0Ssmi6Ep56hhaXoJgOp9ASRR0WoPAsCqm7jdKCcjigI4VuKIHMLRS+h3eupCkrAXu0pyknA17qEKQ0CcX2G03XwTCOQl49HPAppWBHFPIYTVvKoSQGUzoLnsnIoak99hhI03vwUrn5lLbXQ7HdQdPbMDQqoPAC9utNi2dQ2DSaxqFEMjZSmAXvvEfTQOzxOU3XwEsP0uIGFF97mtbA9BKF/IbYq9oGSssroBDfNpq6oWTuoNQDnrmaps+xW3I2TU3godb5lL5PQPElbqGpCQz18ymMxV5v0uJMFNaUpi3lUDJpaynMTYBXmtCUnYxdOtC0Ch5KnElpZzOUxEc09YPpeQr+JtitGy3GoYiLaRqHkhpAqRc8s4qmDtjlHprGwUP/R4t7UCI30/QaTAfvpPAGdslYRWldFRTxOE0XoKTKraSwMBFeGUfTPdhlMk2XwzuH5lD6PRklcjhNKyCMpBBojv96nhYXoqipNDVEiV1N6Qp45XKaJmOX9TTVg3emUPIfiZLxbaSpPky1cii8A+CEIKWPUJRvKw1ZKLnkpRSWJcMj9Whaj/86iKYl8M5VtHgcJfUeTedDeJxCsDVSF1PaUhtFNaFpMlxwGaVr4ZUlNB0E4BiaxsAztbIoLUlDSV1P0yAI1bMpTMAwWvSDoRdNj8EFiQsorCoPj4yh6RgAl9F0JTzzAS1ORom1pukFSI9QutpPaYoPhuE09YIbLqR0CzxyJU2XARhKUwd45XxavISSKx+gYTKkKtvoSM6hMH1DUxO4wTeHwrp0eKMDTUMBfEBTNXjkoLWU1hwEFyyj4W9YPEBHboPJt4WGbT644mxKg+CNajR9AGAeDZvhlZdpcR7c8AUNgRRIlbPowM+JMDWi6Vu45GcKmzLgjc00zAMS82iYAY+cQov34YqRNDWBxT2MLL8VhK40jYBLTqd0H7wxg4a8RDSi6VV4I30ppaxacMWNNJ0Ji4xNjGgIpEtpuhRumU5hayY88SpNjdCFprvgjSdocSXccRpNN8BmECOZlwLpJppawi0nUHoEnriLpi64iabz4ImjA5QmwyX1aRoBm/T1DC9wDCwG05QJ13xFYUcNeOE8mm7CPTS1gheS51La0RAuScilYSKsbmN4T8JmBA3BRLjmGEpPwgutaLoHw2iqCC/cS4sX2rhmGQ2L2lgdu53hLEuHzSs0bIWLPqaw82B4oCJNw/AcDUEfPNA8j3HhVFh9RMPfcFHbIIXn4QFfkIbn8DoN2+GBhBmMCy/DbhoNv8JN71LIbwAPbKfhdXxEwz/wwE2MC2sOgt3vNEyBm5oHKIyFB/6h4SNMoWEh3HdINuPCeQhhJQ3vw1WvU/A3hfsW0jAFM2n4Be4bzbjwPkLZTsOLcFWjAgrj4L5faJiJBTR8A9fV3Ml4sLkmQkiiaTjc9SKFLUlw3Tc0LMAqGibCdX0YF65AKNVouhvuqpdHoRNcN5GGVdhKw3i47hHGgy8RUmOaroPLnqEwFK4bT8NW+GkYA9eNZRzIro+Q2tF0CVxWK4emUXDdGBr8yKbhNbhuGOPAAITWkqYr4bbhNN0B171GQzbW0PAhXHcDY9+MBIR2CE03w21Vt9NwEVz3IQ1rsIiGyXBdbT9jXV5zhJFJ0z1w3YMsKr8BXDeZhkWYRcPPcN8njHVPIpxkmobBdZU3soiRcN/PNMzCVBrmw32NtzPGHY+wdtLwHNzXg4VtrQr3zadhKj6mYSU8cEmAMW1DIsLaQMNr8MBIHrC9OzywkoaPMZ6GLfDCmZsZy8YivKU0fAgv3FzAvf5qCS9soWE8RtPghydqD93I2NUD4c2hYTI80WJMDv9rw4iD4Ak/DaMxnKY0eCOl2VmXXe6ZVTSsvjyU8TTlpiO872j4GR5Jb9Pj7HbJ8EYaTcMxmKbGiEdbafgSoXxI0yeI4DMa/kE8akzTYNxCU1fEoRo0jUYIqTto6ocI3qYpA3GoK023oAdNtyEOdaRpEELoRlOwJiJ4lKYjEYduo6kHmtM0GnGoL00XIoQxNP2ISPrSdCni0GiamiPFT8NUxKGhNB0FO99amu5EJB1oehBxaCoN/hTgLxrWIA69R1NV2B1DoQUiqUrTe4hDa2j4C8CnNGUg/vxOw3aEMJSmvxDZJhrmIv5k0PQpgMdpao+448uh4XeEMI+mxxHZ9zTsTEDcaU/T4wD609Qbcac5TR/BrhGFExDZyzQ1RNzpTVN/ACfQ9ATizjU0jYDdrTRtTERkd9B0AeLOEzSdAKAmTb8h7rxB0yWwm0rTODhwDk3PI+78RlNN/NdWGoJVEW9W0tQQVlX8NJ0HB5rRtAjxpmqQhq3YZQZN5yPONKBpDewupWlnBTiQkkfTwYgz59M0A7sMo2kU4kwfmt6H3Xs0TYIj39LUB3FmFE3DsMsZNC1AnHmRpttgVW47TVfDkftoegVxZj5NZ2CX9HyaaiO+LKTpWFidSVOwNhzpRNNyxJfaNOWnY7fvaOqNuHIITTtTYPUcTT/DmZQdNB2KuNKbpu+wxxCaXkZcGUjTd7Dyrabpbjj0JU39EVdepmkI9uhM06YUxJPZNA2DVXsKreDQIJq+QjxJ2URTZ+xRLpemHogjTSicDasHaFoKp46iKXAw4kgPmnLLYa+vafoQceRemnIrwGoOTSPgVOJWmgYhjnxI09fY5y6a8qsifsyjaQKs6lM4EY5NpOlPxI+q+TTdhX2OoXAD4kZrChfD6iaaNifBsZsptEfcuIHCMdgncTVNPyNuPEzTzgxYTabpdTjXMEjT04gbP9O0OhH7DaPQDHEiaTlNE2FVuYCmnojCtzRtSEacaEZhGA5oSWEo4sRFFPrAqhdNeRURhasonI04MZRCSxQym6Y15REfZtKUVxlWb9H0OaJRKZemSYgP5dfQNBuF3UzhOsSFEyh8CqvkrTRdi6i8ReEIxIXrKNyMwqoX0LQ8GfFgIoUrYHUqhYMRlbMovId4kLycpoLqKOITCn0RB5oGaco9CFYjafoF0UlcS1OwGeJAXwqfoKgLKCxOROwbTeFF2C2n6R5E6QkK4xD7EhdTuABFlc+icDFiXrVcCq1g1YbC4YhSGwoFDRDzLqaQVR6G0RTm+RDrnqYwGUWc8tDnGxle/qwX+mfAkTkUnkes882jMBqmwymdixjXtIBCdxRS7R06s/w0ONGfws7aiHHnUjocwkQKfyQhtn1M4a8EHHDiejr2DBxIWUVhNGJb0h8UJkI6mtKtiGmnUBqAAzLXMApXwIEBFAJHIabdRuloWHxNYVttxLCEORS2VsQB4xmNrXURWdp6CrMSEcPqbKfwNWw6U3oTMawfpRE44BhG5xU4MIjSjYhhb1PqDKvvKZ2EmFVxLQV/QxxwG6OzGA5kZFHYUhMx61RK38PuTEp/JiNWPU1pNAoZz+gEK8GB+ym9gViVspDSmQhhFqWBiFGnBilk10Qh8xmlE+BA5nZKJyFG3UVpFkI5j1J2PcSkg1ZRGozCvmWUmsOJxyjNL4eY1CCH0nkIxfc7pelJiEXjKf2TjsJGMDrZCXCiZjalZxGLkn+k9LsPIXWixSOIQRfS4ioU0ZvRmQ5nBtKiJ2LQcFp0QhjjKAXPQsypvZnSH4koouoGRuUaOJM8j9LWQxFzutFiHMKpkUVp48GIMb4vaHEWDBcyGlN8cOgEWvySghhTbxOlrBoI63pafJeE2HIfLSZDeJ/OZTeAY6/RYiRiS9IPtLge4SXMosWjiCkX0qKgDYS0JwN06Lc2cK7GFlqch5gyjBazEhDBUQFKwa6IIUfl0mIIbDr+QSe2D05GNG6gxZaGiCFdg5QCRyGi52mxvR1ixsFraDE7GXbVzvjPk+ENu7R5AqKTOIsWC6shZrTbTovnEVnmBlqsb4wYkT6bFnmtUKqODtJiZgXEiMbrabEhEw70oc2yWogJvg9oMwilbBRtvkxGTKi1jDZ94MjrtJlTCbHgKdrMSEQpS51Lmzd9iAGV5tDmdThTYQFtppVH2RtBm5wmKHWHZdPmKZS98tNos6ACHGqdS5sJiShrI2h1E8pAH1rdhbKWOIE2ua3hWH9avZaEsjWCVlN8KAsv0+pmlK2k12jVH1F4k1aT0lCWRtBqRXWUibR5tHoYZSltEq3eRDQqLqLVj1VQdkbQakdblJHmO2j1UiLKTJUfabWoIqLSZietFhyCMpL8Eq2CPVFmLqfdR6koI4csoNXONojStbRb3QplospU2g1BGXqVdtMro0y0Wk27axG1kbTLOh5loNlftPvAhzJUfjrt5tZGGTg+i3YjEb2Et2iXeyVK3elbaDcnHWWq8u+0W3EsSt2VubR7KwHFkPIVQ3gtHaXrRj/tNtRHGau1jHYFt/tQqtJfYwhfpaBYKsxkCPNbohSlvcAQco5HmWu8niF8UgWlqOV8hjCzAoqp2kKGkNMXpeaohQwh9xTEgHbbGcKKDig1fXMYwsJqKLb6qxnKuHSUiqT7CxjCztMQE07JYwgFd/hQKtLHMZTV9VECrbIYyp9HoxQcNpOh7DwTMeKCAEP5rB5KwdF/MpSsViiRjtkMJTg6Ex7z3ZjDUPK6IGZcx5CyBybDY5mjgwwluyNK6OiNDGlDXx+81HYaQ8rvjhhyWQFDmncCvOTru4EhbTwaJXbYcob2/eHwTM2XAgypoAdiSpcdDG1cdXjm8O8Z2vLD4II6cxma/8kMeKL8XdsZ2s5zEWOO3cTQsq5NgCcynvQztLl14IqDpjOM9YMy4L4L/2YY649DzGm+gmHMvTgRrssYtJ5hTD8ILkn9iOFkDakCVyWcPYPhzGuAGFR3HsNZfFUKXFVlSBbD+SgVrkl8kWFlD68F16Rdu4hhfVEJMSnzB4a18qZUuKbW8GyG9WIi3PQgw9s5qgFcUfPBjQxvVBJiVNpEhrduUAZc0WDUTob3IFx2zmaGF/i6TzpK6oiXdzK8wADELt+dfoa3443TElFC6X2+DjC8zefAdYf8yEiyx52cgOI77P6FjGR7F8S0jisZyephLVF8CSePy2YkPx4CDyQ/zshWDm2GYqk/6DdGNrMJYlzVTxnZ7AHVUSzNhq5kZI8nwxvdNtGBRaMvrI6oJB9zxww64H8gCTHPN7CAkfl/fvT0dESl+oWjF9GBTd3gmXo/0Jm5T51dGY6knjh48g46suQ4xIXjVtCR/O+GnFgOjlQ++6m5dOaHevBQ0rAgHQrMGjvonGbJCK3m8X0f+z6PTo2tiDiR+TGdyp323IDTD/EhpORm5wwaOytAh4LDkuCtTn8wGgULJw67svuJRx5WJyMBu5SrckiLo0/u88Bbs7YxGhvPRRy5fAOjkfPbW/dd0qVT28Y107FLQkadw448sfuVwyYuLGA0/ugEzyUPzGbxZK9dtaWAxTOpFuJK5gtBFktg6+q12Sye7IHJKA31JrCULeqGuHPMbyxlE+qhtHRdylK05dZkxKHEW7axFC3tilKU+mAeS4n/uaqIU3XeZWnJezAVpavpxCBLw9etEMfO+I2lITixKUpf67cD9Nqf3RHnuvxArwXebo2y0XRsAb30bTcf4t+JX9NLBWObouzUH7WTHgm8exT+RxwzkV7ZOao+ylatx7PpgR3PHIr/Ia3fCtAD2Y/XQtnLvOEnumzdvVXwP6bhfUvosp9uyESMaPrg33TNtnFnJuF/UYfRWXTN3w82RSzxdX5pK12w84OeqfifVe78ifl0wdaXOvsQc1Iv+jSHJeL/8vJK+B9X9cYZfpZIzqcXpSJGles85PsCFs9fL11WHf8Klc5+6g8WT8H3QzqXQ2yrcNbwX4OMzp/P96qDf5UaF41ZwugEfx1+VgXEhyrnP/7JYj+dWDf96fOr41+pft9Rk1fRCf/iTx4/vwriTErzHoPGztjMEDb9+No9F7XLwL9chSMuvv+tX3cwhM0zxg7q0TwFcaxa6w5n9Ow74D+PjnptwsTxo4cPvrV/r64ntM2EOsBXt22nLhf1u3Xw8NHjJ054bdSj/xnQt+cZHVpXg1JKKaWUUkoppZRSSimllFJKKaWUUkoppZRSSimllFJKKaWUUkoppZRSSimllFJKKaWUUkoppZRSSimllFJKKaWUUkoppZRSSimllFJKKaWUUkoppZRSSimllFJKKaWUUkoppZRSSimllFJKKaWUUkoppZRSSimllFJKKaWUUkoppZRSSimllFJKKaWk/wcsTuN4S2hxwAAAAABJRU5ErkJggg==;" vertex="1" parent="1">
          <mxGeometry x="88" y="66" width="34" height="34" as="geometry" />
        </mxCell>
        <mxCell id="a8-rNCmPUpZNnrMcsMXF-15" value="" style="shape=image;verticalLabelPosition=bottom;labelBackgroundColor=default;verticalAlign=top;aspect=fixed;imageAspect=0;image=data:image/png,iVBORw0KGgoAAAANSUhEUgAAAgAAAAIACAYAAAD0eNT6AAAABHNCSVQICAgIfAhkiAAAAAlwSFlzAAAOxAAADsQBlSsOGwAAABl0RVh0U29mdHdhcmUAd3d3Lmlua3NjYXBlLm9yZ5vuPBoAACAASURBVHic7d13vGVVefDx350+wFBm6NI7zACCFQsWmoooaoIKSGJDjQVNLKjRGKMoJm8sKIogohJBLFERu6KIBQVpA4PUofc2lGHave8fa264XG45Zz9rr33K7/v5rI/xfV1nPXvfM2c9e68GkiRJkiRJkiRJkiRJkiRJkiRJkiRJkiRJkiRJkiRJkiRJkiRJkiRJkiRJkiRJkiRJkiRJkiRJkiRJkiRJkiRJkiRJkiRJkiRJkiRJkiRJkiRJkiRJkiRJkiRJkiRJkiRNbqDpACRJPWc6sCuwPbAOMAdYBVy5uiwGVjYVnCRJymcGcDDwLWAJMDRBuQM4DtgLH0QlSepKTwI+C9zOxJ3+eOW3wO7Fo5YkSW3bBvgw6XV+lU5/dFkJfBqYVvIiJEnS5NYBjgB+AQySp+MfXX4OrF3qgiRJ0thmAC8FvgM8Qj2d/ujyZ9KkQUmSVNjTgc8Dd1Gm0x9dfoSTAyVJKmJr4EPA32im0x9d3lbv5UqS1L9KjOtXLUuAjeq7dEmS+st04CXAt4GlNN/RT1Q+VdM9kCSpbzyNtPnOnTTfsbda7gZm13EzJEnqZZsD7wOuoPnOvGp5Vfa7IklSD+rkcf0q5ay8t0eSpN4xFdgX+DrwIM132jnLCmDjfLdKkqTuNx/4JHAbzXfUdZajct0wSZK61ZbAv9I94/oLgRODn3F+ljsnSVKX6bZx/buBE4BnjbiG84OfuSBw/yRJ6hrdNq6/FDgT+HvSXgOjHRX8/GPav4WSJHWPbhrXXwWcCxzJ5Kf4bQgsD7R1EykpkiSpZ2xGekK+iOY79VbK5cBHgG3avM4fBdt9XpvtSZLUcdYmjeufCayk+U59sjLWuH67XhmM4eRA25IkNabXxvXbNQu4NxDP/cAaGeKQJKmIJwOfBW6n+U59srIK+DXwWiYf16/ipGB8h9QQkyRJ2WwBvJ80Xt50p95KuWx1vFvUcTNGeE4wzlNrjk+SpLb147h+uwaAawMxX18wVkmSxjUNOBA4DXiY5jv1ycrDq2M9cHXsTfjYJDFOVuoYmpAkqSV7AJ+he9brnw28js7oPHcidj2blQ9ZktTPpgKHAX+i+U69lXI58AHqH9ev4iqqX9fODcQrSepT+wGX0HynPlm5nbTi4Mn13IaQNUgJ1E+JXaPnAkiSajeH+Gl2dZelwOnAi2luXH88U4B9gFOAJcSvdRBYq+QFSJL6z9ak5XFNd/DjlfNJWwjPq+sGBOxM2i44MuN/rHJjwWuQJPWh3YE7aL6TH10WAR8Etqzv0ivbGHgX8Ffqu/4zi12NJKnvzKezOv87gM8BT6nzoitaAzgU+DFl9j44osxlSZL6zVzgGprv9B8h7z78OU0hbR50Aml//lL3ZCmwToHrkyT1mQHiM9QjZRD4LfAGOrOjmw98AriBZu7P8fVfoiSpH72JZjq2K0gT5rat/QrbNxc4EjiX5hKjIdK2xevXfK2SpD40l9hRte2WO0nj+k8tcXFtmg28GjgLWEGzHf9wObLWK5Yk9a1jqb8TGzmuP6PMZbWsqXH9VsqJNV63JKmPrQ08QD2d1yBwDvBGYN1SF9SGXWh2XH+ychadt7mRJKlHvJ38Hddi4JPAduUuo2WdMq4/WTmDtMxQkqRa/IE8HdZdwHHA08qG35LZwKuAH9E54/rjlQeAN5NWZUiSVIsNScflRjqsh4B3kjrZTjIFeC5wMp03rj/effwCaUdBSZJq9QpindY9wBOLRz2xnYFjgOtpvlNvpZwHvA1Yr46bIUnSWI4h1nkdWD7kMW0IvAP4C8136O2UD9VxMyRJmsx3qd55/aqBeEeaDbyS7hjXH6s8QJqQqAa4tEJSv9s0UPfUbFG0bgrwbNKhOK+gM7cMbtUppCEUSZKKW0T1J9g9C8a5E/Bxumdcv5Xy5Kx3SG3xDYCkfhdZarYsWxRj24C0Je/hdOZRwBGLgPObDqKfmQBI6nfLA3U3By7LFchqs4CXAK8BDqDzjgLO5YdNByBJ6m8/p/or7E9nimEA2Bs4CbgvEE+pspy0vXHkM56f5c5JklTRSVTvxO4H5gXa3gn4GGnb4KY79VbKX0hLDTcEnh74nGXAzMB9kyQp7K3EOsUzgalttLcB6eyB84LtlirXkyYf7jzqOl4d+My/tnG/JEmqxVOId5I/YOL17LNIRwD/kPT6vOlOfbJyP/AV0jbCU8a5pg8GPv/kCe6VJElFTAFuJd5p3kXaVfBZpL3stwUOJp1lf2+Gz6+7rCBtKPQqWjvT4MRAWx9o4fMlSardl2i+A26qnA8cRRrXb8e3Am2+ps22JEmqxa7AIM13xqXLRYF7dlag3X0D7SqT8cZ2JKmfXAr8rOkgGrAT1feDWTPQ7tJAXWViAiBJyaeaDqABM4HtK9ZtZZ7AeOreQVEtMAGQpORs4PSmg2jArhXrrQi0ad/TAfwjSNKj3gbc3nQQhVVNAB4KtDknUFeZmABI0qPuBt5MmhDYDZaQjtT9fuAzmkgAuvkI455hAiBJj/V94F+aDmICK4EfA4eS9ht4LfC9wOc1kQBsGagrSVKtPk7zy/RGlsuA95E6/dGeGPjcQWDtCvfnE4E2j6vQniRJRQyQOtyVNNfp3wh8Epg/SawzSZPyqrbz9PZvD28MtPfzCu1JklTUAcA9lOv0HwbOAA6ivTX6lwXafGMb7QzbL9DerRXakySpuM2JbX07WVkJ/AQ4DFijYoynB9r/XIX2tgm0N0Q6FVGSpK6wN/An8nX8FwLvYuxx/XZFTuc7u0J7U0kTAau2+fwKbUqS1Kg9gOOB+2i/47saOBZYkDmml1SIZbjcVbHNPwfaPKpim8pkoOkAJKmLTQN2B54JPA14ArA+MG/1//8DwM2kTv984HfA5TXFsjVwbaD+E4Bb2qzzFeB1Fds7iWpzDyRJ0ggDwP1UfyI/oEKb7wq0d16F9pSRGwFJUm8YIq0EqKrKhkCXBNqbj31Qo7z5ktQ7Lg3ULZ0ArEkatlBDTAAkqXeUTgDuBO4o3KYyMQGQpN4RSQB2ob2Nh3K0uVugroJMACSpd0Q645nA9oXb9A1Ag0wAJKl33ENadlhVlQ7ZBKBLmQBIUm8p3SFH2tsOmB2orwATAEnqLaUTgIXAqortTQV2rlhXQSYAktRbSicAS4ntQOgwQENMACSpt0QSgK2BtQu3aQLQEBMASeoti0jHC1cxQFoO2C4TgC5kAiBJvWUZcGWgfumJgO4F0BATAEnqPd20EmBjYINAfVVkAiBJvad0AnAN8HCgzQWBuqrIBECSek/pV/KrgMsDbToPoAEmAJLUeyIJwFxg08JtmgA0wARAknrPYmBJoL5bAvcBEwBJ6j1DwGWB+qUTgAXYHxXnDZek3tRNKwHWJG1CpIJMACSpN5VOAG4H7ijcpgJMACSpN0USgF2AaYXbNAEozARAknpTpDOeCWxfuE0TgMJMACSpN90D3BKo70qAHmcCIEm965JA3dIJwPbA7EB9tckEQJJ6V+kn8suAwYrtTQV2rlhXFZgASFLvKp0APAxcW7hNVWQCIEm9K5IAbA3MKdymCUBBJgCS1LsWASsr1h0A5leoV3regSoyAZCk3rUMuCpQ35UAPcwEQJJ6WzdtCbwJsEGgvtpgAiBJva10AnANaTJgVQsCddUGEwBJ6m2RMfndKtRZRZp7UJXDAIWYAEhSb4u8AZhLei1fsk0TgEJMACSpty0GlgTqOxGwR5kASFJvGwIuD9SvMgwQSQAWYN9UhDdZknpf6SfyyLyDNYGtAvXVIhMASep9pROA24E7CrepNpkASFLvizyR7wJMq1BvYaDNKsMOapMJgCT1vsgbgJnAdoXb9A1AASYAktT77gFuCdR3JUAPMgGQpP7QTVsCbw/MDtRXC0wAJKk/RDrkKmPyC4HBiu1NBXaqWFctMgGQpP5Q+g3Aw8C1hdtUG0wAJKk/RFYCbA3MqVDPeQAdzARAkvrDImBlxboDpOWA7TIB6GAmAJLUH5YBVwXql54I6F4ANTMBkKT+0U0rATYBNgjU1yRMACSpf5R+Ir+aNBmwqvmBupqECYAk9Y/SCcAq0tyDqpwHUCMTAEnqH5EEYC7ptXzJNk0AamQCIEn94zpgSaC+WwL3EBMASeofQ8DlgfpNJAD2UzXxxkpSf+mmlQBrAlsF6msCJgCS1F9KTwS8Dbgz0KbDADUxAZCk/hJJAHYBphVu0wSgJiYAktRfImcCzAS2q1DPBKADmQBIUn+5B7glUN+VAD3CBECS+k83TQTcHpgVqK9xmABIUv8pnQBcBgxWbG8asHPFupqACYAk9Z/SKwEeIm1CVJXDADUwAZCk/hNJALYG5hRu0wSgBiYAktR/LgdWVqw7QFoO2K7I6gMTgBqYAEhS/1kGXBWo70qAHmACIEn9qZtWAmwKzAvU1xhMACSpP5VOAK4GlhZuUxMwAZCk/hRJAHavUGcVsCjQpglAZiYAktSfIgnAXGCTwm2aAGRmAiBJ/ek6YEmgvhMBu5wJgCT1pyHScsCqSicAC0hLEJWJCYAk9a/ST+SRvQDWArYK1NcoJgCS1L9KJwC3AXcWblPjMAGQpP4VSQDmkw7qadfCQJtVziHQOEwAJKl/RV7JzwS2q1DPiYAdwgRAkvrXPcCtgfquBOhiJgCS1N9KH9ITSQC2B2YF6msEEwBJ6m+ln8gXAoMV25sG7FSxrkYxAZCk/lY6AXiItAlRyTY1BhMASepvkQRgG2BO4TZNADIxAZCk/nY5sLJi3QFglwr1TAA6gAmAJPW3ZaSjeqsqPRHQvQAyMQGQJHXTSoBNgXmB+lrNBECSVPqV/FXA0kCbCwJ1tZoJgCSp9Cv5VcCiQJvOA8jABECSFEkA5gGbFG7TBCADEwBJ0nXAA4H6bgnchUwAJElDpOWAVTWRAAwE6gsTAElS0k0rAdYCtgrUFyYAkqSk9Cv5W4E7C7epEUwAJEkQSwB2AaZWqLcw0KYJQJAJgCQJYkMAs0hH9bbLiYANMgGQJAHcQ3otX5UrAbqMCYAkaVjkLcAOFepEhgB2AGYG6vc9EwBJ0rDIE/ncCnUWAoMV25sG7FyxrjABkCQ9KpIA3FuhzoOkTYiqchggwARAkjTs94G6F1WsF0k6PBQowARAkjTsGuCCCvXuBn5Rsc3SBxFJkqQxvIA0Lj/URnlHoL1D2mxrZLkp0K4kSRrlWFrvhL9D7G3yzm20NVapMvlQkiSN4/3AcsbveAeB44EZwXamAUsnaGey8pxg+5IkaZQdSJ38Yh7tcG8HvgE8JWM7F1A9AXhbxjgkSdIoM4DZNX32KVRPAL5UU0w9b1rTAUiSusLyGj87siOgKwEqchmgJKlp0b0ABnIFIkmSytmE2EqArYpH3AN8AyBJatqtwJ2B+m4JXIEJgCSpE1wWqOs8gApMACRJnSAyD8A3ABWYAEiSOoEJgCRJfejpVJ8EuAKYWT5kSZIUtSawiupJwO7lQ+5uDgFIkjrBQ6Qth6tyGKBNJgCSpE7hPICCTAAkSZ3CBKAgEwBJUqeIJADuBSBJUpfamdiWwPPKh9y9fAMgSeoUVwGPBOrPzxVIPzABkCR1ipXAokB95wG0wQRAktRJnAhYiAmAJKmTmAAUYgIgSapqCrAxsDUwK9NnRhKABcBApjgkSdIouwBfA+7i0Rn4g8DvgX8k9nC5KbGVAFsF2pYkSeN4L2my3kSd8LnAhoE2RiYW7ZaDAu1KkqQxfJDWO+JFwNoV2zm7jXZGlw9UbFOSJI3hKbR/Wt/JFdv6XJvtjCynVWxTkiSN4Sza74xXAttWaOvICm0Nl4VVLk6SJD3eOsByqnXI/1yhvb0qtjW0Os6ZFdrsOy4DlCRNZkdgesW6z6xQZyGpM69iOrBTxbp9xQRAkjSZOYG6VTbneQC4rnCbfccEQJI0mTsCdbcF1qhQL7ohkCZhAiBJmsxVpBUAVUyh2il9kQRgt0DdvmECIEmazCPA1YH6VV7JeyZAzUwAJEmtKN0hR9rbDJgbqN8XTAAkSa0onQBcRXrzUJXzACZhAiBJasUlgbpVxuRXAlcE2nQYYBImAJKkVkTeAGxAtcOBnAdQIxMASVIrrgMeDNR3ImCHMQGQJLViELg8UL/KMEA0ARgI1O95JgCSpFaVfiKPzDuYA2wRqN/zTAAkSa0qnQDcAtxduM2+YQIgSWpVJAGYD0ytUC9yvK87Ak7ABECS1KrIK/nZwDYV6jkRsCYmAJKkVt0F3Bao70qADmICIElqRzdtCbwjMDNQv6eZAEiS2lE6AVgIDFVsbxopCdAYTAAkSe0onQA8ACwu3GZfMAGQJLUjkgBsB6xZuE0TgHGYAEiS2nE5sKpi3SnAzhXqmQDUwARAktSOpcDVgfqlJwK6F8A4TAAkSe3qppUAmwFzA/V7lgmAJKldpROAK4FlgTbnB+r2LBMASVK7ItvzVkkAVgKLAm0+JVBXkiStth1pbX7VsmGFNr8ebPP3wAsrtCtJklabAjxI9c54nxbamE6awHco8AngskB7I8sZwDrVL12SpP52HtU74XeO+qwtgRcDRwPfJB06tDzw+ZOVC4ENst0JSZL6yEnEXsd/ETgXuC/wOZFyLuktgyRJasM7aabjzlk+mP2uSJLU4/ah+Q48Wh6kj/cIcBmgJKmKyF4AnWJN4DVNB9EUEwBJUhU7UP1MgE7yoqYDkCSpWxwAPELzr/BzlPuBgby3R5Kk3rMDsITmO+6cZeusd6hLOAQgSWrHScCcpoPIrC+PDDYBkCS1an/g2U0HUQMTAEmSJvD6pgOoSV8mAJIktWKANGGu6fH6OsplGe9T13DmoySpFVsD1zYdRE1WAmsBy5oOpKRpTQcgSeoK85oOYITlwCJgIWlDokuB61b/9ypD29OAnYGLcgXYDUwAJEmtaGrTn8U82tFfsvr//huwYoz/7XXAthXb2RUTAEmSHufmmj//Ph59mh/u6BeS5h206lKqJwALKtbrWiYAkqRW3AHcTXwoYAVwFWni3eUj/vNy0oS8iIXAwRXr7hZsW5KknnU21Wfan056yp5eY3yHBOK7qca4OpL7AEiSWrUwUHdodf2xxu5zuSRQ9wl01kTH2pkASJJaFTkCuMRmO1cBSwP1+2oegAmAJKlVkQRgR2BmrkDGsQq4IlC/r3YENAGQJLVqIdUn6k0DdsoYy3g6/S1FxzABkCS16gHg+kD9Eh2sCUCLTAAkSe2ITLTr9ARgAX20Rb4JgCSpHZ3+hB1JUOYAW+YKpNOZAEiS2tHpCcCtwJ2B+n0zDGACIElqRyQB2AyYmyuQCUSO9+2bHQFNACRJ7biS2LG583MFMoFOf0vREUwAJEntWEnnr7U3AWiBCYAkqV2d3sFG4tuB+jcs6ggmAJKkdnVDAjBYsW6pDYsaZwIgSWpXJAHYjfrX2j8ELA7U74thABMASVK7IgnAHGCLXIFMoNPfUjTOBECS1K6bgHsC9Tt9HkBfLAU0AZAkVbEwULfTlwL2xbHAJgCSpCoiHWynDwFsBszLFUinMgGQJFXR6QnAVcAjgfol3lI0ygRAklRF5FjgDbJFMb6VwKJA/Z6fB2ACIEmq4oGmA2iB8wAmYAIgSapiVqBu1U162hWZqNjzSwFNACRJVeweqPtgtigmdkmg7gLq37CoUSYAkqQq9gvUvS5bFBOLDAGsDWyZK5BOZAIgSWrXTsABgfqlEoBbgLsD9Xt6GMAEQJLUjqnA54m9Hr8wUyytcEfAcZgASJLa8TFgn0D9FcDvM8XSClcCSJIUdDQwFCx/KBzzkYFYI6sIJEnqCe8m3vkPAW8vHPfTA7GuAGYWjleSpI6Rq/NfBqxfOPa1SPsOVI05stxRkqSuleO1/3D5WuHYh13TRoyjy+ENxCtJUqNyPfkPAcuBbcuG/39+0GKMY5VjG4hXkqTG5HzyHwK+WDb8x/iPCeKarPy4gXglSWpEzif/IeAmYG7RK3isQ8aJq5VyYwPxSpJUXO7OfxB4YdEreLydiV3DvPIhS5JUTu7X/kOkjYOaNg14hOrXsHf5kCVJKiP3k/8QcBqdc6LehVS/jrc2EK8kSbWr48n/J8CMkhcxia9R/Vq+1EC8kiTVqo4n/58Bs0peRAveQ/XrKXl2gSRJteuXzh/gBVS/piV0zlCGJEkh/dT5A2xK7Nq2Kh6xJEmZ9VvnP+wuql/fQQ3EK0lSNv3a+QP8hurX+IHy4UqSlEc/d/4Ax1H9Ok9rIF5JksL6vfMHOJLq17qwgXglSQqx80/2ovr1rgBmlg9ZkqRq7PwfNYd0NkHV696tfMiSJLXPzv/xrqX6tR/eQLySJLXFzn9sP6D69R/bQLySJLXMzn98H6P6PfhxA/FKktQSO/+JvZLq9+HGBuKVJGlSdv6T24XY/ZhbPmRJksZn59+aacBSqt+TZ5cPuR7Tmg6gw60PbAxsDmwCbAasTVpKMm3Uf470ALAcuB+4F7gPuAW4HrgBuIm0plSScjga+ETmz/wp8DLgkcyf27SVwBXAEyvW3w34Xb5wmmMCkO7B9sACYFdg/ur/3Jz6Mt9VwK3AYlJS8Dfg/NXlzpralNSb7PzbdynVE4AFOQNRWeuTvtifAS4gfcFzvzaLlOuB7wLvB/YD1qnnNkjqAUeT/zfoJ/Tea//R3kv1+3NuA/GqorWAVwCfJ2V9kV2gmigrSCdYvQ93oZL0KDv/6l5A9Xt0HzBQPmS1ah7wWuCHxCZ7dGK5ATgBOBhYI9cNk9RV7PxjnkDsXm1VPGJNaF3gLcCvSJM8mu6oS5QlwMnA3piRSv3Czj+Pu6l+vw5qIF6N4ZnAKcBDNN8hN1muBj4MbBm6m5I6WTd1/lsDrwI+SppzdRzwr6Qh2Y1qaK9dv6H6PftA+XA1bF3gKOAymu94O62sIr0FeQm+FZB6STd0/jOBNwEXTtLuIPBb4FBgasb223HcJDFOVL7ZQLx9byPgk6T19U13tN1QFgJHANOr3GxJHaMbOv8DSEub243jImCvjHG06k0VYh0ulzYQb9/akjSL/2Ga71S7sSwG3oGTBqVu1Omd/wDwH8RWWC0H3pkpnlY9IxjvjMLx9p3Nga+SbnbTnWgvlDtJPyb9NtlH6lad3vlPAU7KGNu/ZoqrFXOIJS0uy67JmqR17w/QfKfZi+VG0tCAcwSkztXpe/sPAF+sIcbXZIqvFdcF4jysYJx9YQrwetK++U13kv1Qfgc8uaW/jKSSuuHJ/ys1xDhEevDbPFOck/lBIM5PFoqxL+zF5DNHLfnLKtIyyk0n/QtJKqGfO//hcmqmWCfzsUCMZxWKsafNJmVS/bJ5T6eW+4EjcVhAalK/vvYfXVZRZk+TVwZivLFAfLVq+sf+ecCJwLYNxzGeVcBtpON7R/7nHaQ9+h8c8Z/w6NHAs0iJzZqk44M3H1G2pLNn458FvJF0WqGkcjr9VL8ppN/r12X4rFZ8mLS6oE7zSculq1qPdDaA2rA28CU662CeW4AzSW8jXgPsSerE6zAPeDpp6+Ivk44B7qRTCe8mbdAhqQxf+z++/C5T7BOZTuy399kFYuwpuwNX0nwndw1p7Pt1wPZ1XnCLppPuzVGkp/AHaf4efQfYoM6LlmTnP055hDJr7SNzz/6pQHw94w00t5nPSlJG+W5gu7ovNIOZwPNJbyQuobkk4CbgaTVfq9Sv7PwnLrtmuo6JfD0Q3xcLxNf11gS+RvkvzyBwNmlp4Ya1X2W9diUlA9dT/j4+QrqHkvKx85+8lBiKfG8gvnMLxNfVtidNsij5pbkZOIbueNJv1xTS8b8nUn6Y4Iu4/aWUg51/ayX3pMixvDAQ3300P5m+Yz2DtP1sqS/LOcBLae50qdLmAu8nJTyl7vG5wCYlLk7qUXb+rZcfZbqmiWwWjHHLAjF2nb8HllL/F2SQtJvTM8pcVkeaARwO/JUy/yhvJk1YlNQeO//2yvWZrmsy9wRifHGhGLvGu0lr6Ovu+E8Hdil0Td3iJZQZcrmH/k66pHb1a+d/VqDuILBupuubyG8DMb6/QHxdYQpwHPV3PufgzPSJTAX+kfonDD4I7F/mkqSu1q+d/xdIbyiXBT7jWZmucSKRfuubBeLreMO7RNXZ4fwNOLjUBfWAWcC/kCaq1PU3WQb8XakLkrpQP3f+wxPkIkuZ35LpOifypkB8lxaIr6MNAMdTXyeznLQEbmapC+oxmwDfpr6/z0rSHg+SHqtf9/b/Mo+dHf8/gc86PtO1TuQZgfiW08ero6aQ/th1dS7n4jh/Li+nvhUDg6QzBCQlPvnnuRcltgRem9jW9LsViLHjDFBf5/8QaZvFKcWupj+sS31/s5WkJEPqd3b+j3Vg4DPvHeczc7suEONhBeLLblqw/n9Sz1PfQtIxjZfX8NntWoO0mdHwaX5PALZY/f++Do+eADhseLz93tXlZtJ2ureSzh+4hrRCoin3kY79/TlwEukacplKetX3QuA3GT9X6ib9eqrf8cDbSL9/o0XGydcl/fbeEPiMVlwKbFWx7oKMcXSFt1LPU+SXqe8UvsnMBvYB3gecRkpAVo4RY6QsBS4Avgq8C3gSzW1ctA3wlzFijJb7gT0KXofUKXzyH9sA6YGo6ucfGL/0SX08EN9ZBeLrGC8hf8f4IPCqkhdB+lI+mbSO85eU2bhorHIf6Sjif6b89sUzgM+Q/2jm2+jNrZil8dj5T+ycQBtHB667Va8KxHc78Fz6YBfap5LG53N+gW4C9ix4DXsCxxIb86mzXAR8iLKTHw8ndi72WOUaYF7Ba5CaYuc/uS8E2jm14nW3Y34gvuFyG2lVxT70YDKwFekCc36BLiCNq9dtLvAe4MrM8ddd/gS8ljTnoG7PJbYl5ljlZ/TgPwRpBDv/1rwl0NYlFa67XdPJ+xB0B2n5+pYFYq/dTPKPF/8v6ajgOu1OmvDycObYS5d7gc9SfZJKq3YGrs0caZO+RgAAIABJREFU+8dqjllqip1/654VaG8ZZdbaXxSIcbyyktTX7UMXnxz4efLelK9T75PhnqRx9dx/zKbLcuBk0sqEumxE3mRvEDioxnilJtj5t2ddYnONdq3QZru+EYivlXIxaQ5dV3kleW/CidS3vn9X4Hvkn9TWaWUl6cu6RZ7b9jjrAOdljPdenBSo3mHnX03kfJJDA+226r2B+NopfwSeX+B6wnYAlpDvwj9PPa9B5pImX9R9CmGnlYeAj1DPHIF1yfsm4OKa4pRKsvOvLvJW9phg2614YSC+KuUXdPBOt7NIP9q5LraOzn+ANEnujoxxdmO5AXhF8F6OZT3g/IxxltjXW6qLnX/MMYEYzszQ/mQ2C8RXtSwD/p0OPOvmE+S7yNPJ/9p/a2LnOPdiOY38S+/WAy7MFN8gabWB1G3s/OMODcSxOFMMk8m9EqrVcgXwnALX15InASvIc2G/JP8Mzn8g7TjXxB+q08ut5J9osgnpLUOO+K6h/tUfUk52/nnsGohlkDQsWbcmHyoHgU/T8OmCM8j36v8CHrtXftR61Hu0bS+Vz5LWtuayO/nmg3w2Y1xSnez883lNMKZnZY5nLLlXvFUp51H/ku9x/dskwbVabiY9OeayC923kU/T5Vxg0yo3exwHkmcb6FWU+ccsRdj55zGdlPRH43pLxpjG8+YMceYo9wAH13ytj7MraVJCNPhlwDMyxnUQvvKvWm4Fntn+LR/X2zPF9TeaO/hJmoydfx4bkR5EcsVWt2dkijVHGSQ9kBeTa/zjrRljei/NLu8bJE1A+TlwHKkDPII0635f0vkIT1pd9iYtJTmCtPXwcaTtcK+l2b0JHiZvNnlKpriKfrmlFtn557Ejac5PrvjOyRjbeNam8/aROYl09HytXpYp2FMyxTMAfCpTTO2Uh0kTFz8I7EW+tevrAgcAHwZ+Q9rVr+R1rSS93sphLdITfDSmB8g7TCRF2fnn8Qzgrswx3psxvolclznuHOXHpN/dWswgz/j6IvK81p0KfDlDPO18sU4g7c6U6x/qZOaQkq7TSMchl7rWf80U/x7kOTzjy5nikaLs/PPYl/ynxg6XzTPGOZ4f1hR7tPyFmlZCHJUhuBWk1+FRU4FvZohnsrKStLnEIZTr9MezBmnY4I+U+SK9L1PcOb43K0lHcUpNsvPPY3/qPXztwIyxjufjNcYfLX8i78o61gPuzhDYRzPEMkB6Eq/zBi4jjal06t70ewLfov55D0dliHUA+FGGWH6UIRapKjv/PPYDltYQ58hydMZ4x/PqQHzLgdsC9Vsp55BxW/Uc4+wXkGfN+SczxDJeWUqalFfXATq57UgaHqhrQsog8IYMcW5OGsuPxtMVh2Oo59j55/Ek8vwOTFZOzRjzeBYE4hskLb1+H/nnQIwsvyDDd2wt4L5gICvIc1TjvwTjmKj8GNg2Q4xNeCr5ltGMLstJ43VR78oQy3kZ4pDaYeefx7bU/9Q7XC7OGPd4phOb3/Ts1Z+zNvDf5NtVd3T5JsG/4+syBPHpSACrHUg9r7xvAF6eIb6mDQBvJE1WzH2P7gF2CsY3DfhrhlieE4xDapWdfx7rkmdFUKtlGXl3OB3PRYEY/2nUZ+1GfQ9xH4hc5KnBxm8nnR0fsRPxtxBjlRPpvT3nNwF+Sv57dRXpSOWIpxJP4kqc+CXZ+eeL86wa4pysLMh4DeP5RiC+sU49nULa0ybHRnsjyyoCZ79cEWz8tVUbXq2O7HEJcFgwrk42QBouyf1F+gHxH4cvBmMYJP42QpqInX8+Tc2Wf3Xm6xjL+wLx/W6Cz92TtFw+5/1YQsWVVJEn7wuIH/F7RqD9scpFpMlz/eBZ5B93e1swpk2Ir/91XwDVxc4/nxfQ3I55x2S+lrG8KBDfvUx8v9cmve3MeU8uAWa2e5GR3eiWkna2qyp6MtRY/xB77ZX/ZLYgNlY11t90t2BMx2aIYaNgDNJodv75bEA6YyR3rK2WEkOFmwdjnGy12RTyr3r7f+1eZPQJsmoSsCV5x/1PpczEkE60DnnPsF5I7DzqecT/tjn2lJCG2fnn9f0aYm2nLK7hmsYSmXTd6oZFbyPfm5RVwPPaucAcO8+1mwQMAGdnuuAh0iqE6FBEt5tN3sk4HwrG8+Fg+7eQdoSUouz88zqshljbLYPEJ5+3IvJg1c6GRf9AnmPWh0gr31reLvi/MjXaThJwRKY2h4DPtHqhfWAWaXOIXH/P7QOxzCG+u+T+gfYlsPPPbT3yzTu6jtgQdM4jzsfz+UB8/9NmW4eRbyn8Z1tt9DmZGhyitSRgXfJ9gf4Hn/xHWxP4PXnu7y+J/YhEx7e+FmhbsvPPL9c27XeRVvtcGviMXCebTuTNgfguqdDe2wLtjSwraGOp5GWZGh1i8iTgc5na+Sn9O+Y/mfWBq8lzn18RiGMLYq+1lpBxv2v1FTv//PYgzxPqw6SjgiF26NsXarrOkZ4ZiG8Z1eZS/UegzZHlV602+NJMDQ6X8ZKAXcgzznEx/Tfbv125NldaRNrlr6rvBtsvsd5XvcXOvx4/yxDjKuDgEZ/5/sBnnVPXhY6wDrEJelW2yB8A/jfQ5sjyd602Gv2hHl3GSgJOz/C5D9A/6/yjXk6e2aWRA4OeE2z7rEDb6j92/vXYN1OcHxv1uS8OfNa9dVzoGBYHYjy0YptzgMsD7Q6Xq5hgMvXIL8wc0l7F0TXgIz1CyvZ+RhqPuJj4mP3htD+5om7TSYcqdaL/Ip33EHET8GTShJ0q/kD13f1Wrq57T8X6rVoBPFhzG61al3p/zHvVm8m/Qczvgb8n/ZblkOPf42jH8+jYcV3OI231HfFHYG/Sv+lhWxJb0rcFcGOgfivOJCUqVXyC6nv170zabG92xfrDWu4zn0DKGHJmpsNvAr6d4bNOrHgDchggvc55BymD/z1pMmPu7XgtzZUHgZ+T/sGUnFy6FunJ9QL8PlnaK3U/+QPskyHO+4Ctx/jsAWJDlS/KfK1jiWx3HN2w6KhA28NlIW38ntWVBERfRd9AM0/Ze5H2t7+jzXgt3V3+wuQ7eeWwN83uqGbp7vIb4PnUK8fS4onOZomckve+bFc5vlcH4lscbHuAtBorev/bOhG3jiQgWiKz0ds1jfQUuLCG67B0T7mRdLZBXZ6DT/yWPOVsYCvy2zNTbBOJHCD2jSxXObEFgfhybFi0HWkIKvI3+Eu7jXZSEvCTdoMPOIjOuW5L8+WX1GMd0lHaTV+fpXfKPTx2hn0OXw7GtILJZ8K/NfD5F2e5yolNJ5aoPytDDB8LtD9cntRuo52QBCwlZUB12wT4XgPXZ+n8Uscr1uhWyRbLWGUQeAt5zCHtxRGJ53MttLN34POXUWY/mIsDMeb4e6xBGgaP/C2Or9Jw00nA56sE3abnkf9YXUvvlBPIL+fmWxbLyLIKOIS4I4Nx3EfaOngy6wXbaXnHu4BTA/Hl2rAox9/jMRurtTIz8GbguaSd5UpbAfxnzW28kzTJxeNnNZ49Mn/eTNISH6kOU0hj49HvbdU17MNOoLW1+vcSW8pXZbOddl0aqJsrvlOITSpch1EbA7W6NKCpJOBU4PoaP/+jpJMEPXVOE2nlKaYdrvNX3WaQOuCqv22bAM8OtL+M9g5qi3SwJd4AdEICsJy0r0DE4SP/SztrnUsnAatIh8nU5RjiR96qP9yZ+fPuJo3VSnV6CtXHn19BbC+Mb5CWt7aqEzrYiUTiWxfYPFMc3yC2KdpzgLWH/0u7f+CSScDPgStr+uy3kPagllrxp8yft5K06Y9Ut6OpdpZHdDXBf7f5v18YaKtEAnAjaQy9qlwxLgVODtSfAew3/F+qZHilkoC61nfuDxxX02er9wxRz9bTp9bwmdJoT6D9znwNYkvX/kI6RKwdkSfsLRnxVFujTnlL8SXS71JV/7etcdVXPHUnAUuA79fwuRuQJlI45q9WnUY9T+snkFbXSHVr+US41Z5Nmqha1Tcr1LmCNOm7iuFt2uvWKQnANaRzFap6Eav7/sgYT51JwLdJrzpy+zL17uym3nIx6YCZOiwDXka5E83Uv55Pe5NO9w20tQr4VoV6y4gN+ZZIADppmOKMQN0NWT1xMnrgSV1JQJUv0GReSP5dstS7ziBtUPJAjW1cBjwduLDGNqQNaG+b4L0CbZ1Ne5P/Rrok0G6JlQCR+HYi74ZF3yY2kfipUG1yyGjDScBvyLNj3zLS4RA5TQf+X+bPHM0nue62grQZ1B+Ar5F/4t94riQdtfwy0uYtu5L2pHCZoEZag9hr+S2A61r4300jtn/AzwN1O+kJeyzDZ8NU+bc5A9iR2DWOdAtwEemshiqeCpyUKRYg346Bv8kZ1GpHZIhrZLmVNIZ7ILAZ6Y8rSXVZg9juka3OA3hioI0h4GmBazwo0G5kaVw7FgdifHXmWP4zEEstbx1zJAEfriGuvwZjGvklezexTFyS2jVAejtV9ber1eNgXxto4wFib5W3CrQ9RHoYq9uZgfg+njmWFwZiWQGsEZ0DMNrNwAHBzzg7RyAjPIs8W7n+gTSO81+kYQpJKuXtxMbmW51UvUOgjd+T9rio6nrSCrCq+mklADyaEFYxDdgpdwIAsbHLIdK4Rk6vyvAZ3wH2Ae7I8FmS1I4nA58KfkarE7UjCUDbZ86PMkRsjHy3YPut6KT47id2NsBWdSQAWwbq3kreWddTaP3V13j+RNo/+ZF4OJLUlnWA04kNOy4Frm3xf7t9oJ0c+1r08pkAW5BWZOR0caDu1p2WAPwtWxTJ7sTW/d9FmjzjK39JTTgJ2Db4Gb8mrc9vRWQcvekEoMQQwBWkQ3mqGCC9Sc4pcr867g1A7gTg6cH6x5LmNUhSaf9E+7v4jeWHLf7vZpAOrqkqx9ktkQ4t91r7sawgJQFV7Z0rkNVuCNStJQF4QqBu7g2FIktS7gC+mCsQSWrDHuTZu+Re0nbWrdiQ6nO47iWdchkVSQBmEpvD0KrIErqq6/bHc1Og7sZ1JABrBupGTlsaS2Q867vAQ7kCkaQWrU3aDXVWhs86ntbnVUXGp3Otw7+XWKdWYhjgt4G687NFkUTu1ZqdlgDk3nZ1i0DdX2SLQpJadzyxh5dht5A2i2lV5Lf7wUDd0Tp9HsA5gbprAXNzBUJsB9paEoA1AnVzJgADwMaB+uflCkSSWvQm4LBMn3UkaalYqyI7mvZTAnANaYJ4VZF+abSHA3V7OgGYSmxXqhzjWZLUql2BT2f6rOOAs9qsExly6KcEANK5IVVF3rSMFjk1t5YEIJJF5lxuNzVQdzku/ZNUzlqkE95mZ/isC4D3VKgXeWCqujRuLJEEYEvS3gl1i8wPy7lSYUWg7sw6EoBIQGtliyIdlVh1m8QZwJyMsUjSRL5EOi0u6n7glVR7gIn8dud8qr2C6rEMAPtnjGU8kdf4Od+WRPrM5XUkAJFMMGenu4L2xr9Gi26+IUmteD35xv3fSBqjrqJTfruXEdtT4CW5AhnHFGIbzOUc6l47ULeWBCDy6jznGwCAOwN1n5otCkka2wLSeH0OXyQNI1QV2e489xvTyDDAfsTOpJnM06g+1D1E3jNlIvf9kToSgMh60NxfousCdXNl5JI0ljWBM8gz7n8h8M/Bz4gsKcv92x05dGcj8pwAO56XBureRN79ZSL3/Z46EoDI7PmNskWRRE4WfDawc65AJGmU48nzG/MAadw/emBZZGnbPGITr0c7P1j/7VmieLzZxB4Oc293H+kz76ojAYi8ds+9jWMkARgAPpcrEEka4R+BIzJ91pHkOYjnHtLk6SpmETsHZrTfEZvDdRj1zOM6itiBSX/MFchqkT4zkvCN63WkcY4qJXqe9GgbkU7BqhrPEOkfqiTlsgtpJnjkd2m4nJA5thsDsbwwcyxfDMQyBJxL3rcSO5CSkkhMz8sYD8CJgVhqecB9XiCgJeSfvPHnQDxDpEmN+2aOSVJ/WoM0vp2j87+YPPMHRvpdIJ53Zo7lgEAswyXHgUqQ9hZYFIxlCXnOdxjpnEA878ocCwBbBwIaInaa4FiODsYz/Iere2mJpN73FfJ0/g+QZ9+A0b4eiCn36akzSBMTo/fqU8QeLDcB/pQhjlMCMYznjkA8kcmM45pC7PXWKzLHsxHpKT76xxsEjiW21bGk/vUa8nT+Q8DhNcUYeWCKzLkaz3GBeEaWn1Jt7f7zSDP3c8Tw/ArtT2S7YDy1HZ0cyZa+UEM83wrEM7rcCryDMttNSuoNO5Ge2nP8Bn2lxjhfFIhrFbB+5ngW8OiurtFyH3AMrc2cfwpwZqZ2h0j7GuQe3j4yEM9DwNS6Nkv4MmlHqioWkSbJ5LQbaZ1szlUPK0iTTH5LyhBvw/MDhi0nLQe9irx7hEvdaDbpdNEcB9UsJG1EEzkFbiKbkSYCVvX3wHcyxTLsf4GDM37eStLcsLNJuybeSfobbUoaVjmQ2FHyYzkUOC3zZ55OWv5ZxV+ocbO7N1A9Mxkkts3ieE4LxGSpVh4GfkWaHLTN5H8iqSd9mTz/nh4k/8PRWG4OxHh8DfE8kfhqribLpeRdjQDpbcJtgZhy7T45pp0DgQ1Rz9K7LUmT+Zr+MvRzuRT4OCnzrGMPCqnTHEq+fz//UCjmMwIxXkM92/BGlwQ2VQaBvWu4H3sG43pVDTH9nwHSJgNVg/tlTXG9LRCTJW+5hbSG+UDyL42ROsEO5HvoOKVg3EcFY31mDTGtR/rNaPp3q93y1RruBcB/B+OKbGbUksjEu1XA5jXENAX4SSAuSz3lQeB7pDc/uScRSU2YRZp3lOPfx2XkPW53MvOD8X6pprj2pbuGAv5GPcfKTyNNRq8a16IaYnqc1wYCHCItR6nDXNJrqqa/HJaxy0rSZiTvocZlKlLNcr2yfog0E760GyrGO0TaUriut3ofCcRVsjwE7F7PLeCFwdg+XVNcj7EJseUbi6jvSMf5pJmfTX9JLK19D44lvVZ03oC6wSHk+/6/vnDsw05oI8axyiE1xTUA/E8wtrrLCuCgmq4f0uz/SHz71xjbY/w+GGidN3FP8uwyZSlX7iCtgT4YN2RSZ9qO+H7xw+UbhWMfKboN759rjG0G8MNgfHWVVaS333XZhpRgVI3vbtL9KyI6mST3yUmj7UFsyYulufIw6UfgDcDGo/+wUgNmAheQ5/t9BbBW2fAfYzrxt6R1PmnOIO030PTv0MiyjOrr8lsVfTNT5yZSj7MpaUw3EvA+Nce4Ofkm61iaKatIyeLRpOEdqQm5tq19mLR5WdOinc05Ncc3BfhkMMZc5Q7yb/U72mbAI8E496s5xsc5Kxjw2QVinAV8hnxbTlqaLVeTTgF7Dvk34JDG8gryfX+PLBz7eJ5G/FrqWAM/2suJLTuPlnPIf4jdWD4XjPN6GphHdXAw6CHgZYVi3Qe4PEO8ls4pd5FOOPs76lmSI21DvvlEubeLjbqY2PWcT5kkfFNiGxhVKfeRhrmnFbi+XYgfavdvBeJ8nGmkvaUjgV9PuXWw00mH/Tg3oPfKI6R9IN5MmYxdvW8GacJbju/nlXRekvoW4tf11oLx7kMaDqzzd2QZaXikji3rxzIA/DoY83Lq2VunJdHJgEOksZ6SZgCvI9+kHktnlUHSgRgfor71uup9nyHP93EpaVJyp5lNbNOZIdLbkVZO4MtpP+D7xGbMjy53kHbgq30XvVEOyxD7VwvH/BhrALePEVQ7ZRnNTfDaEfgwaYOa6CQMS2eW60hjbPuS3gJJkzmEfPOG/qlw7O14D/HrO7V41MkmpHv7E9LmPFV+F04mLUlv4ndhPeIJ2ErG2VStro12xnI08IngZ9R9FGYrZpMy9R2B7UlfsDWBdSl7P1u1EXmOIT2H1o72nUU6S3tmhjabch/wU+AHpB+O+5sNRx1oH9J58bMzfNa3qW/jnBzWAhYD84Kf8xqaSwQgDUcvIJ0uuDWwFenvty7pAfMB0tuKxaRlmJeu/r+bMkDaIj16FPLpwKvj4cSsTdoiMppJnlQ68C42kzzjk79us905pEl3XydtPNH0032kLAd+QTpIass274N6zxTS8da53gReDaxT9Aqq+TDxa30A2Kl04F0sx9D5IHkeALP4CHn+0RxeOO5ulWNd8iDp+N6qpgLPJS3LuzpDPE2XC4F/B55EZ77xUT0GgGcBfyDfd+kR0veoG6xHnh0OLybPW5Ne9xTis/6HgP+dqJHSP2Brk/Z23zT4OQ+S1pdeGI6od72OPLs+fZf0NJ/LfOAlq8tT6e79/W8ivQb+MWmcTr1lCmnC15NI56dvm/nz30FK0rvFu4H/zPA5pwJHkDooPd7GpJUMWwU/ZzlpgvMV0YByeiV5sufbyP8Pslc8j/THj97j5aS5DnXZGHgjaUvfhzPEa7F0S/ku3fcGaTppXDzH9edIJHrROuTbmfaYwrG37BfkucCrcR/40XIeclTyC7QGabLLyaTlNk3/QFssdZVrSRPPutHe5Fv58O7CsXe6maSdb3Pc28V08IFpO5JvEs2FpPEppRmuuY45vprmxuqmko7/PZb0+qrpH2yLJVdZRmxOTSf4GnnuxSDwj2VD71jTyXu40UvLht++j5HvYi/Fnd32IL7XwshS7MzoFuxAWov8O+KHS1ksTZZ30f02It9bxlWkVRX9bE3iZ+aMLGeWDb+aWcBF5LvoxfTvEpO9SWvXc93Lr5YNvy0bkJ4avkeaDNr0D7rF0mo5g+4b9x/PoeS9N5+gd+5NO+aRd+viOym/U2FlO5LWhua8+L2KXkHzjiBtI5rrHv6NZs8hb8cs4EDSvty30PwPvMUyXvkzvbf87UTy3qOTSVuw94utyXv43CDwoqJXkEHuTHIZ6TVbr2eT00hr63Peu0dIkwi70RTS2OrHyTdT2WLJUa6l3MExJc0GLiHvvfozqWPsdQeTZ2O8keXYoleQUe5Mcoh0EESvTg7cirwbkgyXXhqL24Z0Pb8m74EgFks75XK66JVsBTuR9y3uEGl+Qakj4EubQTpAKtdKiuFyLmWOJa7FbOLnTo9VFpNOheoVA6Tx75zj/cPl6/TuW5O5pN0jzwCW0HynYOmPch6wPr3vcPLfu0HgeLpjm+RW7Ua+o6NHljtp8KjfXDYHbqSef4jfovtXCWwL/JJ67s+5dPfhPe2YCRxA+nGp6/tm6e8yCHyW/vk3BfBR6rmXt5KOw+1mc0jHCNfxJvIh4BnlLqVe86nv8JglwD/TfZNM1iXtmlXXMcTXARsWu5rOMkDa5vXfgb/SfMdh6f5yE12wBrsmJ1Dfff01zR0HX9UAaQvpm6jnnqwgTYLuKc+g2rnNrZYbSXtwd+wuSautA3wAuIv67sXtwM6lLqgLbEE69e/n5DmIw9I/5WHgP0hruvvVVNIWx3Xd41Wko5P3KHVBFU0ldfy5J0iOLD29idKLqX/i1u3A++i8iYJbA5+knnH+keUuOuiYyA60Duncim+Sb9MTS++V20hvkHpxln8Vs4DfUO89HwR+BDy7zCW1bDbwWtJS6rq/d+8tdE2NeRVlnsIeIW3B+FKaGx5YAziEtBvUqjFizF3upXuX+zVhOrAPaVz3OprvdCzNljuBU4BX0F/j/K1ah7RrZ4m/xZXAh2hu6eAAaSO2k6j/oW24/HvO4DvZ/qRXSqU2prmLtMPcr0hZ7B01trUxaTLai0jjOKVeHd6xur3zC7XXi3YgDVXtRTraei52BL1oiPSjfh8p8buU9Fp3ISlR1/hmA6eTjv0uYYg0mfks0nyBv1Lf32gOqdN/PvBy4sf2tmqQNHz9hVwf2OkJAMBTSH/UDQq3O0T6h/5r0pbFi0jZ5r0VPms9UqexB2mzmqcCu1D+/l8LvAC4qnC7kvrPNOBLwOsbaPs+4LekpGAR6bX8YtJZIu1Yk/TbvSNpGd9zSX1S6TX3y4DXkOZAZNMNCQCkm/9TymVaE7mT9GVaQtqL/j7SRhjDX6w5pFf6G5Ce8regfPIylgtJbxtuazoQSX1jgLQ75/ubDgRYDlwD3AzcT/r9Hi6QHtTmkN44r03aTKwT1tcvIW2M9OumA2nSppQbV+q1cgbpiy1JTXgjec8s6ZdyJbB7hfvdk6YBH6HMRLleKCtIKx265U2PpN61C2lYtenfxW4p3yPtA6NRXkCazNb0H6iTy82kiSqS1CnmkJbWNv372MllKfDmqje4XzyBNMmj6T9WJ5ZT6bz9DSRp2JGkzZOa/q3stPI34ImB+9pXBoAj8G3AcLmdtCxFkjrdZqRZ7U3/bnZCWU7aAG5W6I72qfVJGzHkPmKxW8oK0trQedEbKUmFvYT+3mDrJ8B24bsonkQ9xy12cvk1aX2qJHWr2aQJ3nUdetaJ5WbSG2xlNIW0re7FNP8HrrOcRw+eBCWpr20BfJ7eXjJ4PenQsdmZ7pnGsS/wR5r/g+cs5wIH4dI+Sb1rA9IbgVL765co1wJH4Th/cfuRdhLs1v0DHga+Rtp7XpL6xTzS4Te30PzvcNXyF+Aw0jHBatBWwEfpngknFwHvxCV9kvrbNOBg4EzKnBIbLXcCx+GSvo40ADwN+G/gapr/sows55P2zd6+tquXpO41l3TA0E/orL0EbiWtRtuf8ocFVeI4crI9aXfB5wLPBDYq2PbVpKOHfwucTZoZKkma3GzS7/b+wLNIT9ylOt8lwB+Ac0hDzBeREoGuYQIwtu2BPUnL63Zd/d+3Jnbm+xLSJJCFPHqu+MWkrFGSFLcm6bje4d/uBaTf7shD3UrgBtJJgpeQfr8vIv2Wr4oE2zQTgNYNAJuQdq+at7qsQTqsYeR9vJf0pVgC3E2avHIj8FDJYCVJ/2cNUiIw/Nu9PuntweilePeTliDevbrcCtzEo8e9S5IkSZIkSZIkSZIkSZIkSZIkSZIkSZIkSZIkSZIkSZIkSZIkSZIkSZIkSZIkSZIkSZIkSZIkSZIkSZIkSZIkSZIkSZIkSZIkSZIkSZLxM3KoAAAAGklEQVQkSZIkSZIkSZIkSZIkSZIkSZLUd/4/W88Nz0SX2WAAAAAASUVORK5CYII=;" vertex="1" parent="1">
          <mxGeometry x="92" y="100" width="32" height="32" as="geometry" />
        </mxCell>
        <mxCell id="a8-rNCmPUpZNnrMcsMXF-18" value="" style="shape=flexArrow;endArrow=classic;startArrow=classic;html=1;rounded=0;fillColor=#f5f5f5;strokeColor=#666666;endWidth=13.846153846153847;endSize=6.563076923076922;startWidth=13.846153846153847;startSize=5.947692307692307;" edge="1" parent="1">
          <mxGeometry width="100" height="100" relative="1" as="geometry">
            <mxPoint x="246" y="149.85000000000002" as="sourcePoint" />
            <mxPoint x="326" y="149.85000000000002" as="targetPoint" />
          </mxGeometry>
        </mxCell>
        <mxCell id="a8-rNCmPUpZNnrMcsMXF-19" value="" style="shape=flexArrow;endArrow=classic;html=1;rounded=0;endWidth=18;endSize=6.666666666666667;fillColor=#f5f5f5;strokeColor=#666666;" edge="1" parent="1">
          <mxGeometry width="50" height="50" relative="1" as="geometry">
            <mxPoint x="260" y="69.66999999999996" as="sourcePoint" />
            <mxPoint x="320" y="69.66999999999996" as="targetPoint" />
          </mxGeometry>
        </mxCell>
        <mxCell id="a8-rNCmPUpZNnrMcsMXF-20" value="" style="shape=flexArrow;endArrow=classic;startArrow=classic;html=1;rounded=0;fillColor=#f5f5f5;strokeColor=#666666;endWidth=13.846153846153847;endSize=6.563076923076922;startWidth=13.846153846153847;startSize=5.947692307692307;" edge="1" parent="1">
          <mxGeometry width="100" height="100" relative="1" as="geometry">
            <mxPoint x="330" y="85" as="sourcePoint" />
            <mxPoint x="330" y="135" as="targetPoint" />
          </mxGeometry>
        </mxCell>
        <mxCell id="a8-rNCmPUpZNnrMcsMXF-22" value="&lt;b&gt;Event Processing&lt;br&gt;&lt;/b&gt;&lt;br&gt;&lt;i&gt;Core Functionality, Fast Track&lt;/i&gt;" style="rounded=1;whiteSpace=wrap;html=1;" vertex="1" parent="1">
          <mxGeometry x="620" y="40" width="180" height="60" as="geometry" />
        </mxCell>
        <mxCell id="a8-rNCmPUpZNnrMcsMXF-26" value="&lt;b&gt;Data Ingestion and Analytics&lt;br&gt;&lt;/b&gt;&lt;br&gt;&lt;i&gt;Enrichment, Cleansing, Aggregation&lt;/i&gt;" style="rounded=1;whiteSpace=wrap;html=1;" vertex="1" parent="1">
          <mxGeometry x="620" y="116" width="180" height="60" as="geometry" />
        </mxCell>
        <mxCell id="a8-rNCmPUpZNnrMcsMXF-27" value="" style="shape=flexArrow;endArrow=classic;startArrow=classic;html=1;rounded=0;fillColor=#f5f5f5;strokeColor=#666666;endWidth=13.846153846153847;endSize=6.563076923076922;startWidth=13.846153846153847;startSize=5.947692307692307;" edge="1" parent="1">
          <mxGeometry width="100" height="100" relative="1" as="geometry">
            <mxPoint x="124" y="115.37" as="sourcePoint" />
            <mxPoint x="204" y="115.37" as="targetPoint" />
          </mxGeometry>
        </mxCell>
        <mxCell id="a8-rNCmPUpZNnrMcsMXF-29" value="" style="shape=flexArrow;endArrow=classic;startArrow=classic;html=1;rounded=0;fillColor=#f5f5f5;strokeColor=#666666;endWidth=13.846153846153847;endSize=6.563076923076922;startWidth=13.846153846153847;startSize=5.947692307692307;entryX=0.001;entryY=0.428;entryDx=0;entryDy=0;entryPerimeter=0;" edge="1" parent="1">
          <mxGeometry width="100" height="100" relative="1" as="geometry">
            <mxPoint x="570" y="66.32" as="sourcePoint" />
            <mxPoint x="630.1800000000001" y="65.99999999999994" as="targetPoint" />
          </mxGeometry>
        </mxCell>
        <mxCell id="a8-rNCmPUpZNnrMcsMXF-30" value="" style="shape=flexArrow;endArrow=classic;html=1;rounded=0;endWidth=18;endSize=6.666666666666667;fillColor=#f5f5f5;strokeColor=#666666;edgeStyle=entityRelationEdgeStyle;" edge="1" parent="1">
          <mxGeometry width="50" height="50" relative="1" as="geometry">
            <mxPoint x="570" y="90" as="sourcePoint" />
            <mxPoint x="630" y="150" as="targetPoint" />
          </mxGeometry>
        </mxCell>
        <mxCell id="a8-rNCmPUpZNnrMcsMXF-32" value="" style="shape=flexArrow;endArrow=classic;html=1;rounded=0;endWidth=18;endSize=6.666666666666667;fillColor=#f5f5f5;strokeColor=#666666;" edge="1" parent="1">
          <mxGeometry width="50" height="50" relative="1" as="geometry">
            <mxPoint x="40" y="290" as="sourcePoint" />
            <mxPoint x="100" y="290" as="targetPoint" />
          </mxGeometry>
        </mxCell>
        <mxCell id="a8-rNCmPUpZNnrMcsMXF-33" value="Data Flow" style="text;html=1;whiteSpace=wrap;strokeColor=none;fillColor=none;align=center;verticalAlign=middle;rounded=0;" vertex="1" parent="1">
          <mxGeometry x="108" y="274" width="60" height="30" as="geometry" />
        </mxCell>
      </root>
    </mxGraphModel>
  </diagram>
</mxfile>
